<?xml version="1.0" standalone="no"?>
<!DOCTYPE svg PUBLIC "-//W3C//DTD SVG 1.1//EN" "http://www.w3.org/Graphics/SVG/1.1/DTD/svg11.dtd" >
<svg xmlns="http://www.w3.org/2000/svg">
<metadata>
Created by FontPrep 20130207 at Mon Sep 22 16:35:26 2014
 By Tom Galle
Copyright Copr. 1999, Design: Cornel Windlin &#38; Gilles Gavillet, published by www.lineto.com. All rights reserved.
</metadata>
<defs>
<font id="e0ac61a45a3ab76361c76b9fb5d214c7" horiz-adv-x='1024' >
  <font-face 
    font-family="GravurCondensed-Regular"
    font-weight="400"
    font-stretch="condensed"
    units-per-em="2048"
    panose-1="2 0 5 6 8 0 0 2 0 4"
    ascent="1638"
    descent="-410"
    x-height="987"
    cap-height="1427"
    bbox="-52 -442.014 1935.01 1858"
    underline-thickness="40"
    underline-position="-231"
    unicode-range="U+0020-FB02"
  />
<missing-glyph horiz-adv-x="2048" 
 />
    <glyph glyph-name="fi" unicode="fi" horiz-adv-x="1013" 
d="M838 66q0 -38 -24 -58t-54 -20t-54 20t-24 58v772h-311v-772q0 -38 -24 -58q-25 -20 -55 -20t-54 20t-23 58v772h-45q-37 0 -57 24q-21 24 -21 54t20 54t58 23h45v164q0 113 76 192t188 78q37 0 58 -23q20 -24 20 -54t-20 -55q-19 -23 -63 -23t-74 -33t-29 -82v-164h389
q34 1 56 -23t22 -55v-849zM840 1305q0 -37 -24 -57t-54 -21q-30 0 -54 20t-24 58v45q0 37 24 57t54 20t54 -20t24 -57v-45z" />
    <glyph glyph-name="fl" unicode="fl" horiz-adv-x="1130" 
d="M1049 66q0 -31 -22 -55t-58 -23q-113 0 -191 79t-78 195v998h-204q-49 0 -80 -33t-31 -82v-152h98q37 0 58 -23q20 -24 20 -55t-20 -55t-58 -22h-98v-772q0 -38 -23 -58q-24 -20 -54 -20t-54 20t-23 58v772h-61q-37 0 -57 24q-21 24 -21 54t20 54t58 23h61v152
q0 113 76 191t189 79h282q31 1 55 -23t23 -55v-1079q0 -55 35 -83t77 -31t62 -25t19 -53z" />
    <glyph glyph-name=".notdef" horiz-adv-x="2048" 
 />
    <glyph glyph-name=".null" horiz-adv-x="0" 
 />
    <glyph glyph-name="nonmarkingreturn" horiz-adv-x="681" 
 />
    <glyph glyph-name="space" unicode=" " horiz-adv-x="706" 
 />
    <glyph glyph-name="exclam" unicode="!" horiz-adv-x="524" 
d="M340 66q0 -38 -24 -58t-54 -20t-54 20t-24 58v45q0 37 24 57t54 20t54 -20t24 -57v-45zM340 422q0 -37 -23 -57q-23 -21 -55 -21t-56 20q-22 20 -22 58v928q0 37 24 57t54 20t54 -20t24 -57v-928z" />
    <glyph glyph-name="quotedbl" unicode="&#x22;" horiz-adv-x="724" 
d="M319 1067q1 -37 -23 -57t-54 -20t-55 20q-24 20 -23 57v285q0 37 22 56q23 19 56 19q34 0 56 -19t21 -56v-285zM561 1067q1 -37 -23 -57t-55 -20t-55 20t-22 57v285q0 37 22 56q24 19 56 19t55 -19t22 -56v-285z" />
    <glyph glyph-name="numbersign" unicode="#" horiz-adv-x="1429" 
d="M840 844h-226l-45 -250h226zM1348 922q0 -31 -20 -55t-58 -23h-273l-45 -250h246q37 0 57 -24q21 -24 21 -54t-20 -54t-58 -24h-272l-68 -387q-12 -63 -76 -63q-36 0 -58 22t-22 42q0 22 3 28l63 358h-225l-70 -387q-12 -63 -74 -63q-35 0 -57 22t-23 42q0 21 3 28
l63 358h-225q-37 0 -58 24q-20 24 -20 54t20 54t58 24h252l45 250h-226q-37 0 -57 22t-20 56t20 56t57 21h252l66 365q12 63 74 63q35 1 57 -21t22 -54v-17l-61 -336h227l64 365q12 63 76 63q34 1 56 -21t21 -54v-17l-59 -336h244q38 0 58 -23t20 -54z" />
    <glyph glyph-name="dollar" unicode="$" horiz-adv-x="1019" 
d="M918 369q0 -158 -85 -258t-237 -119l-2 -92q-2 -38 -25 -58t-53 -20t-54 20q-22 20 -22 58v92q-145 20 -241 120t-97 255q0 37 23 56t55 19t56 -20q23 -20 22 -57q0 -105 73 -163t179 -59h20q231 0 232 228q0 65 -14 91q-14 24 -20 40t-26 34t-29 26q-9 10 -36 26t-42 26
t-115 60t-141 74q-119 67 -167 140q-49 72 -49 196t90 220t227 117v115q0 37 23 57q23 21 53 21t54 -20t24 -58v-115q129 -20 218 -110t89 -211q0 -37 -21 -57q-22 -19 -53 -19t-55 19t-27 55q-8 76 -68 125t-153 49h-18q-113 0 -169 -64t-56 -139q0 -76 46 -122l29 -29
q10 -10 39 -28t38 -22q9 -6 44 -23t47 -25t123 -64q111 -57 139 -86q84 -89 97 -125q35 -90 35 -176z" />
    <glyph glyph-name="percent" unicode="%" horiz-adv-x="1507" 
d="M432 897v291q0 36 -22 60t-54 24q-30 0 -54 -24t-23 -60v-291q-1 -37 23 -61t54 -23q30 -1 54 23q22 24 22 61zM1229 227v291q0 37 -23 61q-24 23 -54 23t-54 -24t-23 -60v-291q0 -35 24 -59q25 -24 55 -25t52 23t23 61zM588 897q0 -98 -68 -169t-165 -71t-165 71
t-67 169v291q0 98 67 169q68 71 165 71t165 -72q68 -70 68 -168v-291zM1006 1427q44 0 66 -22q22 -21 22 -45t-7 -39l-532 -1284q-21 -49 -63 -49t-71 29t-9 79l532 1284q18 47 62 47zM1384 227q0 -98 -68 -169q-68 -70 -164 -70q-97 0 -165 70t-67 169v291q0 98 67 169
q68 71 165 71t165 -71t67 -169v-291z" />
    <glyph glyph-name="ampersand" unicode="&#x26;" horiz-adv-x="1128" 
d="M248 370q0 -88 70 -158q70 -69 165 -69h19q105 0 211 86q-182 279 -269 428q-94 -67 -145 -133t-51 -154zM666 1073q0 100 -125 101h-15q-38 0 -76 -31t-38 -75t86 -187q84 59 126 102t42 90zM1077 66q1 -31 -21 -55t-59 -23q-109 0 -196 112q-143 -113 -299 -112h-19
q-163 0 -277 114t-114 260t74 243t201 188q-72 134 -92 190q-19 55 -19 90q0 119 82 188t188 68h15q119 1 199 -65t81 -178q0 -112 -63 -185q-63 -74 -178 -151q121 -217 239 -394q16 27 25 52q20 49 61 49q41 -1 66 -21t24 -53q0 -59 -84 -168q47 -61 107 -75t59 -74z" />
    <glyph glyph-name="quotesingle" unicode="'" horiz-adv-x="483" 
d="M319 1051q0 -37 -23 -58q-24 -20 -54 -20t-55 20q-24 20 -23 58v299q0 37 23 57q24 20 55 20q30 0 54 -20t23 -57v-299z" />
    <glyph glyph-name="parenleft" unicode="(" horiz-adv-x="669" 
d="M164 665q0 271 86 505t221 372q53 53 106 5t3 -105q-113 -113 -190 -322q-77 -208 -77 -454t79 -457t194 -322q51 -51 -2 -101t-107 -1q-137 133 -225 371t-88 509z" />
    <glyph glyph-name="parenright" unicode=")" horiz-adv-x="669" 
d="M506 665q0 -271 -88 -509t-225 -371q-51 -47 -107 0q-53 51 -2 102q115 111 194 322q78 211 78 457t-76 454t-190 322q-48 56 3 105q52 48 106 -5q135 -138 221 -372t86 -505z" />
    <glyph glyph-name="asterisk" unicode="*" horiz-adv-x="759" 
d="M719 910q0 -40 -23 -66q-24 -26 -50 -25q-26 0 -44 12l-162 113l19 -196q2 -38 -22 -58q-25 -20 -57 -20t-56 20t-21 58l16 196l-161 -113q-18 -12 -45 -12t-50 26q-23 25 -23 65t40 57l180 82l-180 84q-39 16 -39 55q1 38 23 64t49 26t45 -12l161 -113l-16 197
q-2 37 22 57q25 20 57 20t56 -20t21 -57l-19 -197l162 113q18 12 45 12t49 -26t23 -64q0 -38 -39 -55l-180 -84l180 -82q39 -17 39 -57z" />
    <glyph glyph-name="plus" unicode="+" horiz-adv-x="925" 
d="M834 547q0 -31 -20 -55t-58 -23h-215v-215q0 -37 -24 -57q-25 -21 -55 -21t-54 20t-23 58v215h-215q-37 0 -57 24q-21 25 -21 55t20 54t58 23h215v215q0 37 24 57q25 21 55 21t54 -20t23 -58v-215h215q38 1 58 -23t20 -55z" />
    <glyph glyph-name="comma" unicode="," horiz-adv-x="421" 
d="M289 78q0 -116 -25 -184t-96 -140l-33 -33q-55 -55 -110 -3q-25 24 -25 55t23 55l34 37q45 47 61 87q15 40 15 128v45q0 37 23 57q22 20 54 20t56 -20t23 -57v-47z" />
    <glyph glyph-name="hyphen" unicode="-" horiz-adv-x="874" 
d="M702 625q36 1 58 -23t22 -56t-20 -54t-57 -23h-535q-37 0 -57 24q-21 25 -21 55t20 54t58 23h532z" />
    <glyph glyph-name="period" unicode="." horiz-adv-x="360" 
d="M258 66q0 -38 -24 -58t-54 -20t-54 20t-24 58v45q0 37 24 57t54 20t54 -20t24 -57v-45z" />
    <glyph glyph-name="slash" unicode="/" horiz-adv-x="800" 
d="M704 1567q44 -1 66 -23t23 -46q0 -24 -7 -40l-669 -1646q-23 -50 -64 -50t-63 23t-23 49q0 26 4 37l670 1645q19 51 63 51z" />
    <glyph glyph-name="zero" unicode="0" horiz-adv-x="983" 
d="M678 317v781q0 72 -51 123t-125 51h-23q-72 0 -123 -51t-51 -123v-781q0 -73 51 -123t123 -51h23q74 0 125 51t51 123zM834 317q0 -137 -98 -233t-234 -96h-23q-137 0 -233 96t-96 233v781q0 137 96 233t233 96h23q137 0 234 -96t98 -233v-781z" />
    <glyph glyph-name="one" unicode="1" horiz-adv-x="983" 
d="M641 66q0 -38 -24 -58q-25 -20 -55 -20t-54 20t-23 58v1122l-100 -144q-29 -40 -74 -32t-61 44t8 79l197 264q18 29 63 28h66q57 0 57 -67v-1294z" />
    <glyph glyph-name="two" unicode="2" horiz-adv-x="983" 
d="M836 78q0 -30 -20 -54t-58 -24h-529q-63 0 -78 61t15 107l465 778q39 61 39 133v13q0 76 -47 128t-127 52h-7q-73 0 -121 -50t-49 -122v-23q1 -37 -23 -57t-54 -20t-56 20q-25 20 -24 57v23q0 137 95 232t230 95h7q137 0 234 -95t97 -232v-15q0 -113 -53 -204l-432 -725
h416q36 0 58 -24t22 -54z" />
    <glyph glyph-name="three" unicode="3" horiz-adv-x="983" 
d="M842 317q0 -137 -98 -233t-234 -96h-39q-137 0 -233 96t-97 233q0 37 23 57q24 20 56 21q32 0 54 -20t23 -58q0 -73 51 -123t123 -51h39q72 -1 124 51t52 123v140q0 139 -53 181t-184 42q-37 0 -59 24t-21 54q-1 30 21 54t67 24q171 0 210 94q19 47 19 121v49
q0 82 -55 128t-131 46t-130 -45t-55 -127q0 -37 -23 -58q-24 -20 -54 -20t-55 20q-24 20 -23 58q0 156 100 240t240 85q140 0 240 -86q101 -86 102 -241v-49q0 -195 -113 -293q113 -92 113 -301v-140z" />
    <glyph glyph-name="four" unicode="4" horiz-adv-x="983" 
d="M803 473q37 1 59 -23t21 -56t-21 -54t-57 -23h-92v-251q0 -38 -24 -58q-25 -20 -55 -20t-54 20t-23 58v251h-364q-41 0 -67 27q-26 28 -26 56t11 53l407 927q23 47 64 47q42 -1 64 -23t22 -48t-6 -37l-377 -846h270v164q0 37 23 57q24 20 56 20t54 -20t23 -57v-164h92z
" />
    <glyph glyph-name="five" unicode="5" horiz-adv-x="983" 
d="M827 317q0 -137 -96 -233t-233 -96h-23q-143 0 -231 92t-88 254q0 37 23 57q25 21 55 21t54 -20t23 -58q0 -190 162 -191h23q72 -1 124 51t52 123v320q0 74 -51 125t-123 51h-23q-98 0 -149 -84q-27 -43 -69 -43t-67 22t-24 58v571q0 31 23 55q24 24 55 23h461
q37 1 59 -23t20 -55q0 -31 -20 -55t-57 -22h-385v-347q55 55 151 56h23q137 1 234 -97t97 -235v-320z" />
    <glyph glyph-name="six" unicode="6" horiz-adv-x="983" 
d="M678 317v256q0 72 -51 122t-125 50h-19q-76 0 -127 -43t-51 -118v-267q0 -73 51 -123t123 -51h23q74 0 125 51t51 123zM834 317q0 -137 -98 -233t-234 -96h-23q-137 0 -233 96t-96 233v779q0 137 96 234t233 97h23q139 -1 227 -77t102 -197q3 -3 3 -25t-26 -44t-54 -22
t-51 17q-22 16 -25 49q-20 143 -176 144h-21q-74 0 -125 -52t-51 -124v-258q63 63 178 63h19q139 0 235 -95t97 -233v-256z" />
    <glyph glyph-name="seven" unicode="7" horiz-adv-x="983" 
d="M741 1415q47 -1 73 -25t26 -50t-9 -60l-385 -1237q-18 -55 -62 -55t-71 26t-16 74l365 1172h-361v-105q-1 -37 -23 -57t-55 -20t-57 20t-23 57v182q0 31 24 55t54 23h520z" />
    <glyph glyph-name="eight" unicode="8" horiz-adv-x="983" 
d="M678 317v185q0 74 -52 125t-126 51h-17q-74 0 -126 -51t-52 -125v-185q0 -73 51 -123t123 -51h23q74 0 125 51t51 123zM678 1008v90q0 72 -51 123t-125 51h-23q-72 0 -123 -51t-51 -123v-90q0 -72 52 -124t124 -53h19q74 -1 126 51t52 126zM834 317q0 -137 -98 -233
t-234 -96h-23q-137 0 -233 96t-96 233v191q0 143 122 248q-123 104 -122 248v94q0 137 96 233t233 96h23q137 0 234 -96t98 -233v-94q0 -143 -123 -248q123 -104 123 -248v-191z" />
    <glyph glyph-name="nine" unicode="9" horiz-adv-x="983" 
d="M678 848v248q0 74 -51 125t-125 51h-21q-74 0 -125 -51t-51 -125v-254q0 -72 51 -123t125 -51h19q74 0 126 51t52 129zM834 319q0 -147 -96 -239t-236 -92h-21q-133 0 -224 78t-105 196q-2 4 -2 10q0 37 25 59q27 21 55 21q66 -1 73 -65q10 -66 55 -105t123 -39h21
q74 1 125 53t51 123v263q-57 -70 -178 -70h-19q-137 0 -234 96t-97 234v254q0 137 97 234t234 97h21q137 0 234 -97t98 -234v-777z" />
    <glyph glyph-name="colon" unicode=":" horiz-adv-x="360" 
d="M258 66q0 -38 -24 -58t-54 -20t-54 20t-24 58v45q0 37 24 57t54 20t54 -20t24 -57v-45zM258 653q0 -37 -22 -57t-56 -20t-56 20t-22 57v45q0 38 24 58t54 20t54 -20t24 -58v-45z" />
    <glyph glyph-name="semicolon" unicode=";" horiz-adv-x="421" 
d="M289 78q0 -116 -25 -184t-96 -140l-33 -33q-55 -55 -110 -3q-25 24 -25 55t23 55l34 37q45 47 61 87q15 40 15 128v45q0 37 23 57q22 20 54 20t56 -20t23 -57v-47zM289 653q0 -37 -23 -57q-24 -20 -56 -20t-54 20t-23 57v45q0 38 24 58q25 20 55 20t54 -20t23 -58v-45z
" />
    <glyph glyph-name="less" unicode="&#x3c;" horiz-adv-x="677" 
d="M586 54q0 -22 -25 -44t-57 -22t-62 35l-323 401q-27 33 -27 72t27 71l323 402q25 31 59 31q33 0 59 -24t26 -52t-19 -52l-301 -378l299 -388q21 -30 21 -52z" />
    <glyph glyph-name="equal" unicode="=" horiz-adv-x="1091" 
d="M948 426q0 -30 -20 -54t-58 -24h-649q-37 0 -57 24t-20 54t20 54t57 24h649q38 0 58 -24t20 -54zM948 713q0 -31 -20 -55t-58 -23h-649q-37 -1 -57 23t-21 55q1 31 21 55t57 23h649q38 1 58 -23t20 -55z" />
    <glyph glyph-name="greater" unicode="&#x3e;" horiz-adv-x="677" 
d="M586 496q0 -39 -27 -72l-326 -401q-29 -35 -61 -35t-56 22t-24 45q0 22 21 51l299 388l-301 378q-43 60 7 104q26 24 58 24t57 -31l326 -402q27 -32 27 -71z" />
    <glyph glyph-name="question" unicode="?" horiz-adv-x="817" 
d="M449 66q0 -38 -24 -58q-25 -20 -55 -20t-54 20t-23 58v45q0 37 23 57q24 20 55 20t55 -20t23 -57v-45zM715 1018q0 -119 -92 -211q-17 -19 -73 -63t-79 -82t-22 -97v-141q0 -37 -23 -57q-24 -21 -56 -21t-55 20t-22 58v141q0 115 35 166q35 50 87 95t77 67q68 68 67 125
v82q0 72 -51 123t-123 51h-14q-72 0 -123 -51t-51 -123v-19q0 -37 -24 -57q-25 -20 -55 -20t-54 20t-23 57v19q0 137 96 233t234 97h14q137 0 233 -96t97 -234v-82z" />
    <glyph glyph-name="at" unicode="@" horiz-adv-x="1738" 
d="M1030 317v162q-37 -10 -118 -24q-81 -13 -125 -25t-84 -44t-39 -83v-16q0 -66 48 -105t126 -39h16q72 0 124 51t52 123zM1575 274q0 -141 -72 -214t-190 -72h-13q-135 0 -206 100q-96 -100 -242 -100h-14q-133 0 -232 81q-98 81 -98 214v14q0 115 75 185t165 87t176 35
t100 39q6 8 6 35q0 86 -46 126t-120 40h-12q-109 0 -168 -103q-23 -41 -62 -41q-38 0 -62 20q-40 35 -15 89q82 190 307 190h12q138 0 230 -91t92 -224v-387q0 -88 37 -121t77 -33h13q51 0 79 28t27 103v392q0 209 -146 354t-353 145h-101q-207 0 -353 -146t-147 -353v-353
q-1 -209 145 -354t355 -145h101q104 0 173 31t104 -11q22 -26 22 -66t-48 -61q-117 -49 -251 -49h-101q-272 0 -464 191q-191 191 -191 464v353q0 272 191 463t464 192h101q270 1 462 -191t193 -464v-392z" />
    <glyph glyph-name="A" unicode="A" horiz-adv-x="1116" 
d="M762 494l-205 655l-203 -655h408zM1055 52q0 -20 -23 -42t-57 -22q-55 0 -74 55l-90 295h-506l-92 -295q-19 -55 -63 -55t-66 22t-23 42q0 19 5 36l399 1282q18 57 93 57t93 -57l400 -1282q4 -16 4 -36z" />
    <glyph glyph-name="B" unicode="B" horiz-adv-x="1089" 
d="M811 389v19q0 100 -70 172t-163 71h-238v-495h238q96 0 164 68t69 165zM795 1040v2q-1 98 -61 158t-156 60h-238v-453h238q92 1 154 67t63 166zM967 389q0 -161 -114 -275t-275 -114h-316q-30 0 -54 24t-24 54v1259q0 31 24 55t54 23h316q162 0 267 -106t105 -267v-2
q0 -108 -45 -190t-114 -121q75 -39 125 -123t51 -198v-19z" />
    <glyph glyph-name="C" unicode="C" horiz-adv-x="1030" 
d="M563 -12h-20q-162 0 -276 114t-113 275v663q0 162 113 275q114 113 276 112h20q147 0 256 -95t129 -238v-13q0 -35 -22 -55t-54 -20q-61 0 -77 67q-16 84 -81 141t-151 58h-20q-96 0 -165 -68t-69 -164v-663q0 -96 69 -165t165 -69h20q86 -1 151 57t81 142q14 68 77 68
q31 0 54 -20t22 -56v-15q-24 -141 -132 -236t-253 -95z" />
    <glyph glyph-name="D" unicode="D" horiz-adv-x="1134" 
d="M827 389v637q0 96 -67 165q-68 69 -164 69h-256v-1104h254q96 0 165 68q68 69 68 165zM981 389q0 -161 -113 -275t-274 -114h-332q-30 0 -54 24t-24 54v1259q0 31 24 55t54 23h332q162 1 274 -113t113 -274v-639z" />
    <glyph glyph-name="E" unicode="E" horiz-adv-x="1042" 
d="M981 78q0 -34 -20 -56t-58 -22h-641q-30 0 -54 24t-24 54v1259q0 31 24 55t54 23h641q37 0 58 -22q20 -23 20 -56t-20 -55t-58 -22h-563v-451h391q37 0 57 -24q20 -25 20 -55t-20 -54t-57 -23h-391v-497h563q37 0 57 -22t21 -56z" />
    <glyph glyph-name="F" unicode="F" horiz-adv-x="980" 
d="M981 1337q0 -33 -20 -55t-58 -22h-563v-451h391q37 0 57 -24q20 -25 20 -55t-20 -54t-57 -23h-391v-587q0 -38 -24 -58t-54 -20t-54 20t-24 58v1271q0 31 24 55t54 23h641q37 0 58 -22q20 -23 20 -56z" />
    <glyph glyph-name="G" unicode="G" horiz-adv-x="1105" 
d="M952 377q0 -162 -114 -276t-275 -113h-20q-162 0 -276 114t-113 275v661q0 162 113 276q114 114 276 113h20q149 0 259 -94t130 -239v-13q0 -35 -24 -55t-54 -20q-66 0 -77 65q-17 89 -77 145t-157 56h-20q-96 0 -165 -68t-69 -164v-663q0 -96 69 -165t165 -69h20
q96 0 165 69t69 165v239h-215q-37 0 -58 24q-20 24 -20 54t20 55q20 24 58 23h292q31 0 55 -24t23 -54v-317z" />
    <glyph glyph-name="H" unicode="H" horiz-adv-x="1165" 
d="M981 66q0 -38 -23 -58q-24 -20 -56 -20t-54 20t-23 58v587h-485v-587q0 -38 -24 -58t-54 -20t-54 20t-24 58v1284q0 37 24 57t54 20t54 -20t24 -57v-541h485v541q0 37 24 57q25 20 55 20t54 -20t23 -57v-1284z" />
    <glyph glyph-name="I" unicode="I" horiz-adv-x="565" 
d="M360 66q0 -37 -23 -58q-25 -20 -55 -20t-54 20t-23 58v1284q0 37 23 57q24 20 55 20t55 -20t22 -57v-1284z" />
    <glyph glyph-name="J" unicode="J" horiz-adv-x="974" 
d="M791 375q0 -162 -114 -275t-276 -112h-20q-139 0 -244 85q-104 85 -135 218q-2 5 -2 29t24 46t54 21q57 0 76 -57q29 -88 87 -137t140 -50h20q96 0 165 68t69 164v975q0 37 23 57q24 20 55 20t55 -20t23 -57v-975z" />
    <glyph glyph-name="K" unicode="K" horiz-adv-x="1044" 
d="M983 54q0 -22 -24 -44q-23 -22 -63 -22t-62 45l-318 653l-176 -260v-360q0 -38 -24 -58t-54 -20t-54 20t-24 58v1284q0 37 24 57t54 20t54 -20t24 -57v-648l469 691q23 35 59 35t61 -24q23 -24 23 -52t-14 -47l-322 -471l359 -734q8 -24 8 -46z" />
    <glyph glyph-name="L" unicode="L" horiz-adv-x="960" 
d="M899 78q0 -30 -20 -54t-58 -24h-559q-30 0 -54 24t-24 54v1272q0 37 24 57t54 20t54 -20t24 -57v-1194h481q37 0 57 -24t21 -54z" />
    <glyph glyph-name="M" unicode="M" horiz-adv-x="1402" 
d="M1219 66q0 -38 -24 -58q-25 -20 -55 -20t-54 20t-23 58v1001l-270 -621q-25 -53 -87 -53t-88 53l-278 621v-1001q0 -38 -24 -58t-54 -20t-54 20t-24 58v1271q0 90 92 90h7q68 0 92 -59l327 -733l326 733q25 59 94 59h6q90 0 91 -90v-1271z" />
    <glyph glyph-name="N" unicode="N" horiz-adv-x="1165" 
d="M981 80q0 -47 -26 -70t-62 -22q-76 0 -107 69l-446 1010v-1001q0 -38 -24 -58t-54 -20t-54 20t-24 58v1282q0 39 27 59t65 20q76 0 105 -65l444 -1014v1002q0 37 25 57q26 20 56 20t52 -20t23 -57v-1270z" />
    <glyph glyph-name="O" unicode="O" horiz-adv-x="1103" 
d="M795 377v661q0 96 -68 165t-164 69h-20q-96 0 -165 -68t-69 -164v-663q0 -96 69 -165t165 -69h20q96 0 164 69t68 165zM950 377q0 -162 -112 -276t-275 -113h-20q-162 0 -276 114t-113 275v663q0 162 113 275q114 113 276 112h20q162 1 275 -113t112 -274v-663z" />
    <glyph glyph-name="P" unicode="P" horiz-adv-x="1032" 
d="M825 1029q0 95 -68 163q-69 68 -165 68h-252v-463h252q96 0 165 68q68 69 68 164zM981 1030q0 -162 -114 -276t-275 -113h-252v-575q0 -38 -24 -58t-54 -20t-54 20t-24 58v1271q0 31 24 55t54 23h330q162 1 276 -111t113 -274z" />
    <glyph glyph-name="Q" unicode="Q" horiz-adv-x="1103" 
d="M772 274q23 46 23 74v690q0 96 -68 165t-164 69h-20q-96 0 -165 -68t-69 -164v-663q0 -96 69 -165t165 -69h20q49 0 99 23l-33 31q-25 29 -25 57t25 54q25 24 55 24t55 -25zM950 377q0 -123 -65 -217l37 -39q24 -25 24 -55t-24 -54t-55 -24q-32 0 -56 24l-37 37
q-96 -61 -211 -61h-20q-162 0 -276 114t-113 275v663q0 162 113 275q114 113 276 112h20q162 1 275 -113t112 -274v-663z" />
    <glyph glyph-name="R" unicode="R" horiz-adv-x="1097" 
d="M840 1008v18q0 96 -69 165t-165 69h-266v-486h274q96 0 161 68t65 166zM995 1008q0 -135 -77 -239q-78 -103 -203 -138l254 -531q8 -16 8 -42t-23 -48q-24 -22 -64 -22t-63 45l-278 585h-209v-552q0 -38 -24 -58t-54 -20t-54 20t-24 58v1271q0 31 24 55t54 23h344
q162 1 276 -113t113 -276v-18z" />
    <glyph glyph-name="S" unicode="S" horiz-adv-x="1019" 
d="M918 369q0 -177 -104 -279t-288 -102h-18q-168 0 -287 102t-119 277q0 37 23 56t55 19t56 -20q23 -20 22 -57q0 -105 73 -163t179 -59h20q231 0 232 228q0 65 -14 91q-14 24 -20 40t-26 34t-29 26q-9 10 -36 26t-42 26t-115 60t-141 74q-119 67 -167 140q-49 72 -49 204
t111 234q112 101 274 101h20q152 0 263 -94t110 -233q0 -37 -21 -57q-22 -19 -53 -19t-55 19t-27 55q-8 76 -68 125t-153 49h-18q-113 0 -169 -64t-56 -139q0 -76 46 -122l29 -29q10 -10 39 -28t38 -22q9 -6 44 -23t47 -25t123 -64q111 -57 139 -86q84 -89 97 -125
q35 -90 35 -176z" />
    <glyph glyph-name="T" unicode="T" horiz-adv-x="823" 
d="M793 1337q-1 -31 -21 -55t-57 -22h-226v-1194q0 -37 -23 -58q-24 -20 -54 -20t-55 20q-24 20 -23 58v1194h-225q-37 0 -58 23q-20 25 -20 55t20 54t58 23h606q37 1 57 -23t21 -55z" />
    <glyph glyph-name="U" unicode="U" horiz-adv-x="1165" 
d="M981 377q0 -162 -113 -276t-274 -113h-21q-161 0 -275 114t-114 275v973q0 37 24 57t54 20t54 -20t24 -57v-973q0 -96 69 -165t164 -69h21q96 0 164 69t67 165v973q0 37 24 57q25 20 55 20t54 -20t23 -57v-973z" />
    <glyph glyph-name="V" unicode="V" horiz-adv-x="976" 
d="M895 1352q0 -4 -4 -21l-320 -1282q-14 -61 -82 -61t-83 61l-322 1282q-2 8 -2 31q0 22 22 44t58 21q59 0 74 -59l251 -1071l252 1071q14 59 74 59q35 0 59 -21t23 -54z" />
    <glyph glyph-name="W" unicode="W" horiz-adv-x="1585" 
d="M1151 -12h-37q-31 0 -50 18t-26 41l-245 1051l-246 -1051q-5 -25 -25 -42t-51 -17h-37q-59 0 -76 61l-274 1284q-8 39 15 67q24 28 63 27q59 0 74 -61l221 -1030l241 1036q14 55 78 55h33q63 0 78 -55l241 -1036l222 1030q12 61 73 61q39 0 63 -27q23 -28 15 -67
l-274 -1284q-5 -25 -25 -43t-51 -18z" />
    <glyph glyph-name="X" unicode="X" horiz-adv-x="1021" 
d="M840 -12q-44 0 -68 43l-260 524l-262 -524q-20 -43 -66 -43t-70 37t-3 75l313 631l-289 584q-20 41 3 77q24 36 70 36t66 -44l238 -479l238 479q20 43 66 43q46 1 70 -35t3 -77l-291 -584l313 -631q21 -40 -3 -76t-68 -36z" />
    <glyph glyph-name="Y" unicode="Y" horiz-adv-x="974" 
d="M565 66q0 -37 -23 -58q-24 -20 -55 -20t-55 20t-22 58v481l-322 772q-16 39 7 74q24 35 70 35t66 -50l256 -614l256 614q19 49 67 49t71 -33q22 -34 6 -75l-322 -772v-481z" />
    <glyph glyph-name="Z" unicode="Z" horiz-adv-x="950" 
d="M866 78q0 -30 -20 -54t-58 -24h-616q-57 0 -81 51t3 96l580 1113h-486q-37 0 -57 22t-20 56q0 32 20 55t57 22h586q57 0 83 -46t-3 -97l-582 -1116h516q38 0 58 -24t20 -54z" />
    <glyph glyph-name="bracketleft" unicode="[" horiz-adv-x="645" 
d="M543 -164q-1 -30 -21 -54t-57 -24h-162q-31 0 -55 24t-23 54v1514q0 30 24 54t54 23h162q37 1 57 -23t20 -54t-20 -55q-20 -24 -57 -23h-84v-1358h84q37 0 57 -24t21 -54z" />
    <glyph glyph-name="backslash" unicode="\" horiz-adv-x="831" 
d="M850 -168q0 -24 -23 -48q-23 -22 -65 -22t-62 50l-669 1644q-6 12 -6 38q1 26 23 50t64 23q42 0 64 -49l668 -1647q6 -15 6 -39z" />
    <glyph glyph-name="bracketright" unicode="]" horiz-adv-x="645" 
d="M420 -164q0 -30 -24 -54t-54 -24h-162q-37 0 -57 24q-21 24 -21 54t20 54t58 24h84v1358h-84q-37 0 -57 24t-21 54q0 30 20 54t58 23h162q30 1 54 -23t24 -54v-1514z" />
    <glyph glyph-name="asciicircum" unicode="^" horiz-adv-x="1011" 
d="M1012 890q0 -32 -25 -54t-55 -23q-30 0 -55 25l-388 411l-354 -409q-25 -27 -57 -27t-54 23q-24 22 -24 54t18 52l396 459q24 27 70 27t73 -23l432 -461q23 -22 23 -54z" />
    <glyph glyph-name="underscore" unicode="_" horiz-adv-x="1013" 
d="M922 78q0 -30 -20 -54t-58 -24h-674q-37 0 -57 24q-21 24 -21 54t20 54t58 24h674q38 0 58 -24t20 -54z" />
    <glyph glyph-name="grave" unicode="`" 
d="M711 1210q0 -40 -22 -64t-47 -24t-44 8l-322 148q-45 20 -45 60t22 66q35 39 91 15l322 -149q45 -21 45 -60z" />
    <glyph glyph-name="a" unicode="a" horiz-adv-x="972" 
d="M627 317v162q-37 -10 -118 -24q-81 -13 -125 -25t-84 -44t-42 -83v-16q0 -66 48 -105t126 -39h19q72 0 124 51t52 123zM901 68q0 -33 -20 -57q-20 -23 -43 -23q-111 2 -166 82q-94 -82 -221 -82h-19q-133 0 -231 80t-99 215v24q4 89 54 151t122 89q70 27 142 41t130 25
t68 25t9 40q0 86 -46 126t-120 40h-15q-106 0 -165 -103q-23 -41 -62 -41t-63 20t-23 46q0 26 8 43q84 190 305 190h15q137 0 229 -91t92 -224v-475q0 -59 60 -69t59 -72z" />
    <glyph glyph-name="b" unicode="b" horiz-adv-x="997" 
d="M709 317v353q1 72 -51 123t-126 51h-18q-72 0 -123 -44t-51 -114v-381q0 -74 51 -118t123 -44h18q74 0 126 51t51 123zM864 317q0 -137 -97 -233t-235 -96h-18q-115 0 -176 61q-10 -61 -76 -61q-30 0 -54 19t-24 54v1289q0 37 24 57t54 20t54 -20t24 -57v-418
q55 68 178 67h14q136 0 234 -96t98 -233v-353z" />
    <glyph glyph-name="c" unicode="c" horiz-adv-x="915" 
d="M813 317q0 -137 -96 -233t-234 -96h-20q-137 0 -234 96q-96 96 -96 233v353q0 137 97 233t233 96h20q135 0 233 -96t97 -233q0 -37 -23 -58q-24 -20 -55 -20t-53 19t-25 57q-2 78 -51 127t-123 49h-20q-72 0 -123 -51t-51 -123v-353q0 -73 51 -123t125 -51h18
q72 1 121 51t53 123q2 37 25 59q24 22 54 22t54 -22q23 -22 23 -59z" />
    <glyph glyph-name="d" unicode="d" horiz-adv-x="995" 
d="M655 305v381q0 70 -51 114t-123 44h-18q-74 0 -125 -51t-51 -123v-353q0 -73 51 -123t123 -51h20q72 0 123 44t51 118zM811 61q0 -35 -24 -54q-23 -19 -53 -19t-52 16t-25 45q-61 -61 -176 -61h-18q-137 0 -235 96q-97 96 -97 233v353q0 137 97 233t235 96h14
q123 0 178 -67v418q0 37 24 57q25 20 55 20t54 -20t23 -57v-1289z" />
    <glyph glyph-name="e" unicode="e" horiz-adv-x="923" 
d="M655 567v101q0 74 -51 125t-121 51h-20q-72 0 -124 -51t-52 -123v-103h368zM811 500q0 -31 -23 -55t-55 -23h-446v-105q0 -73 51 -123t123 -51h20q111 0 160 105q19 49 59 49t64 -24q40 -39 16 -91q-38 -88 -118 -141t-181 -53h-20q-137 0 -234 96q-96 96 -96 233v353
q0 137 96 233t234 96h20q137 0 233 -95t97 -236v-168z" />
    <glyph glyph-name="f" unicode="f" horiz-adv-x="608" 
d="M557 1350q0 -31 -20 -55q-19 -23 -63 -23t-74 -33t-29 -82v-164h96q37 -1 57 -23t20 -54t-20 -56t-57 -22h-96v-772q0 -38 -24 -58q-25 -20 -55 -20t-54 20t-23 58v772h-45q-37 0 -57 24q-21 24 -21 54t20 54t58 23h45v164q0 117 75 194t189 76q37 0 57 -23t21 -54z" />
    <glyph glyph-name="g" unicode="g" horiz-adv-x="974" 
d="M666 301v381q0 74 -52 118t-122 44h-19q-72 0 -124 -51t-52 -123v-353q0 -73 52 -123t124 -51h19q72 0 123 44t51 114zM668 938q8 61 78 61q30 0 53 -19t22 -56v-1035q0 -137 -96 -234t-233 -97h-19q-115 0 -214 59t-132 166q-4 16 -4 38t23 42q24 20 66 20t61 -52
t73 -85t127 -33h19q72 0 122 51t52 125v160q-57 -61 -179 -61h-14q-137 0 -234 96t-98 233v353q-1 137 97 233t235 96h19q115 0 176 -61z" />
    <glyph glyph-name="h" unicode="h" horiz-adv-x="987" 
d="M864 66q0 -37 -23 -58q-24 -20 -55 -20q-30 0 -54 20t-23 58v604q-1 84 -55 129t-129 45t-130 -44t-55 -120v-614q0 -38 -24 -58t-54 -20t-54 20t-24 58v1284q0 37 24 57t54 20t54 -20t24 -57v-412q57 61 178 61h17q137 0 233 -96t96 -233v-604z" />
    <glyph glyph-name="i" unicode="i" horiz-adv-x="503" 
d="M330 66q0 -38 -24 -58t-54 -20t-54 20t-24 58v856q0 37 24 57t54 20t54 -20t24 -57v-856zM330 1305q0 -37 -24 -57t-54 -21q-30 0 -54 20t-24 58v45q0 37 24 57t54 20t54 -20t24 -57v-45z" />
    <glyph glyph-name="j" unicode="j" horiz-adv-x="499" 
d="M326 -203q0 -133 -58 -186t-180 -53q-37 0 -57 24q-21 24 -21 54t20 54t58 23q82 0 82 94v1115q0 37 24 57t54 20t54 -20t24 -57v-1125zM326 1305q0 -37 -24 -57t-54 -21q-30 0 -54 20t-24 58v45q0 37 24 57t54 20t54 -20t24 -57v-45z" />
    <glyph glyph-name="k" unicode="k" horiz-adv-x="950" 
d="M879 63q0 -28 -23 -52q-24 -23 -62 -23t-61 41l-256 448l-137 -147v-264q0 -38 -24 -58t-54 -20t-54 20t-24 58v1284q0 37 24 57t54 20t54 -20t24 -57v-791l389 414q25 27 57 27t55 -26q23 -24 23 -54t-22 -54l-254 -270l280 -492q11 -13 11 -41z" />
    <glyph glyph-name="l" unicode="l" horiz-adv-x="602" 
d="M520 66q0 -33 -20 -56t-58 -22q-112 0 -190 79t-78 191v1092q0 37 24 57t54 20t54 -20t24 -57v-1092q0 -47 32 -80t75 -34t63 -23t20 -55z" />
    <glyph glyph-name="m" unicode="m" horiz-adv-x="1492" 
d="M1360 66q0 -38 -24 -58t-54 -20t-54 20t-24 58v606q0 82 -47 127t-127 45h-18q-74 0 -125 -50t-51 -126v-598q0 -37 -24 -60q-24 -22 -54 -22t-55 22q-24 22 -23 60v598q0 76 -51 126t-125 50h-19q-72 0 -124 -44t-52 -114v-620q0 -37 -23 -58q-24 -20 -55 -20t-55 20
t-22 58v856q0 34 24 56t55 21q63 0 76 -61q61 61 176 61h19q154 0 254 -116q100 117 254 116h18q142 0 236 -84t94 -243v-606z" />
    <glyph glyph-name="n" unicode="n" horiz-adv-x="966" 
d="M834 66q0 -38 -23 -58t-53 -20t-55 20q-24 20 -23 58v604q0 72 -51 123t-125 51h-19q-72 0 -124 -51t-52 -123v-604q0 -37 -23 -58q-24 -20 -55 -20t-55 20t-22 58v856q0 34 24 56t55 21q66 0 78 -61q61 61 176 61h19q139 0 233 -85t95 -244v-604z" />
    <glyph glyph-name="o" unicode="o" 
d="M655 317v353q0 72 -51 123t-123 51h-20q-72 0 -123 -51t-51 -123v-353q0 -73 51 -123t125 -51h18q72 0 123 51t51 123zM811 317q0 -137 -96 -233t-234 -96h-20q-137 0 -234 96q-96 96 -96 233v353q0 137 96 233t234 96h20q137 0 233 -96t97 -233v-353z" />
    <glyph glyph-name="p" unicode="p" horiz-adv-x="995" 
d="M709 317v353q1 72 -51 123t-126 51h-18q-72 0 -123 -44t-51 -118v-381q0 -70 51 -114t123 -44h18q74 0 126 51t51 123zM864 317q0 -137 -97 -233t-235 -96h-14q-121 0 -178 61v-414q0 -37 -24 -57t-54 -20t-54 20t-24 57v1289q0 37 23 56t55 19q66 0 76 -61q61 61 176 61
h18q136 0 234 -96t98 -233v-353z" />
    <glyph glyph-name="q" unicode="q" horiz-adv-x="995" 
d="M655 301v381q0 74 -51 118t-123 44h-20q-72 0 -123 -51t-51 -123v-353q0 -73 51 -123t125 -51h18q72 0 123 44t51 114zM811 -365q0 -37 -24 -57q-25 -20 -55 -20t-54 20t-23 57v414q-57 -61 -178 -61h-16q-137 0 -234 96q-96 96 -96 233v353q0 137 97 233t235 96h18
q115 0 176 -61q2 29 25 45q24 16 54 16t52 -19t23 -56v-1289z" />
    <glyph glyph-name="r" unicode="r" horiz-adv-x="710" 
d="M670 844q0 -28 -23 -50t-55 -22t-69 36t-103 36q-122 0 -121 -137v-637q0 -39 -23 -61q-24 -21 -56 -21t-54 22t-23 60v852q0 34 25 56q26 22 64 22t59 -42q41 41 147 41q143 0 213 -100q19 -26 19 -55z" />
    <glyph glyph-name="s" unicode="s" horiz-adv-x="911" 
d="M819 276q1 -132 -107 -210t-247 -78h-12q-102 0 -204 56q-101 56 -147 149q-10 19 -10 45t24 48t62 22t72 -45q33 -44 92 -82t115 -38h10q88 0 142 41q53 41 55 106q2 66 -54 104t-133 54q-79 16 -157 37q-78 19 -134 81t-55 162q0 100 59 164q104 110 277 107h8
q154 0 268 -88q29 -23 29 -55t-22 -56q-22 -22 -46 -22q-26 0 -40 8t-67 34q-52 26 -124 26h-8q-82 0 -129 -32t-49 -86t53 -85t133 -47t157 -40t134 -92t55 -179v-9z" />
    <glyph glyph-name="t" unicode="t" horiz-adv-x="659" 
d="M578 65q0 -32 -20 -55t-58 -22q-113 0 -191 79t-78 191v580h-71q-37 0 -58 23q-20 25 -20 55t20 54t58 23h71v357q0 37 24 57q25 20 55 20t54 -20t23 -57v-357h111q37 1 57 -23t20 -55t-20 -55t-57 -22h-111v-578q0 -51 34 -82t77 -34q44 -3 62 -25t18 -54z" />
    <glyph glyph-name="u" unicode="u" horiz-adv-x="960" 
d="M815 66q1 -35 -23 -57t-55 -21q-66 0 -78 61q-61 -61 -176 -61h-18q-141 0 -236 85q-94 85 -94 244v605q0 37 24 57q25 20 55 20t54 -20t23 -57v-605q0 -73 51 -123t123 -51h18q74 -1 125 51t51 123v605q0 37 24 57q25 20 55 20t54 -20t23 -57v-856z" />
    <glyph glyph-name="v" unicode="v" horiz-adv-x="899" 
d="M726 999q44 0 68 -22q24 -23 23 -45q0 -22 -6 -35l-279 -856q-8 -25 -30 -39t-43 -14h-19q-57 0 -75 53l-279 856q-4 16 -4 37q0 22 22 44t58 21q53 0 71 -53l216 -659l215 659q18 53 62 53z" />
    <glyph glyph-name="w" unicode="w" horiz-adv-x="1372" 
d="M1210 999q36 0 58 -21q22 -20 22 -44t-2 -33l-241 -856q-18 -57 -76 -57h-17q-62 0 -84 79q-173 646 -186 678q-28 -98 -100 -368l-88 -330q-4 -23 -27 -41t-49 -18h-19q-57 0 -75 57l-240 856q-4 16 -4 36q0 19 22 41t58 21q57 0 74 -57l176 -623l184 625q16 55 88 55h2
q74 0 88 -55l187 -627l178 625q16 57 71 57z" />
    <glyph glyph-name="x" unicode="x" horiz-adv-x="892" 
d="M801 63q0 -28 -24 -52q-23 -23 -61 -23t-61 37l-209 335l-208 -335q-23 -37 -61 -37q-37 0 -61 24t-24 50q0 27 12 44l250 402l-231 371q-12 23 -12 49q-1 26 23 48q24 24 62 24t60 -37l190 -308l191 308q23 37 59 37t61 -24q41 -40 11 -97l-229 -371l247 -402
q15 -15 15 -43z" />
    <glyph glyph-name="y" unicode="y" horiz-adv-x="845" 
d="M683 999q43 0 67 -22q24 -23 24 -41t-4 -39l-338 -1055q-82 -256 -272 -282q-4 -2 -25 -2t-43 22t-20 58q0 68 67 75q47 6 82 45t64 131l71 226l-272 782q-4 8 -4 33q0 26 22 48t66 22q43 0 63 -54l203 -584l187 584q18 53 62 53z" />
    <glyph glyph-name="z" unicode="z" horiz-adv-x="851" 
d="M770 78q0 -30 -20 -54t-58 -24h-522q-59 0 -81 55t15 109l455 667h-385q-37 0 -57 24q-21 25 -21 55t20 54t58 23h500q63 0 86 -53t-15 -105l-456 -673h403q38 0 58 -24t20 -54z" />
    <glyph glyph-name="braceleft" unicode="{" horiz-adv-x="813" 
d="M711 -139q-1 -33 -21 -56t-57 -22q-152 0 -223 78q-45 45 -61 99q-15 54 -15 153v391q0 37 -58 94t-64 74q-7 16 -7 35q1 43 65 103t64 124v303q0 156 72 235t227 78q37 0 57 -22t20 -56q0 -32 -20 -55t-78 -23t-90 -37q-33 -38 -33 -140v-289q0 -109 -116 -221
q39 -37 58 -57t39 -60q20 -39 19 -80v-385q0 -102 34 -144t110 -42q37 -1 57 -23t21 -55z" />
    <glyph glyph-name="bar" unicode="|" horiz-adv-x="708" 
d="M432 -244q0 -37 -24 -57q-24 -21 -54 -21t-54 20t-24 58v1739q0 37 24 57t54 20t55 -20q24 -20 23 -57v-1739z" />
    <glyph glyph-name="braceright" unicode="}" horiz-adv-x="813" 
d="M479 504v-391q0 -99 -15 -153t-61 -99q-72 -78 -223 -78q-37 1 -57 23t-21 55q0 33 20 55t58 23q76 0 110 42t34 144v385q0 41 19 80t39 59l58 58q-117 113 -116 221v289q0 102 -33 140t-111 38q-37 1 -57 23t-21 55q0 33 20 55t58 22q156 0 228 -78t71 -235v-303
q1 -66 65 -125t64 -97t-14 -54q-14 -17 -39 -42q-76 -76 -76 -112z" />
    <glyph glyph-name="asciitilde" unicode="~" 
d="M788 575q0 -31 -36 -63t-73 -45q-36 -12 -97 -12q-60 1 -136 27t-108 26t-62 -29q-20 -23 -49 -23t-51 24t-22 52t18 48q68 72 166 71q59 -1 138 -27t107 -26t57 16t42 26q12 9 39 9q27 1 47 -21t20 -53z" />
    <glyph glyph-name="exclamdown" unicode="&#xa1;" horiz-adv-x="524" 
d="M340 66q0 -38 -24 -58t-54 -20t-54 20t-24 58v981q0 37 24 57t54 20t54 -20t24 -57v-981zM340 1305q0 -37 -24 -57t-54 -21q-30 0 -54 20t-24 58v45q0 37 24 57t54 20t54 -20t24 -57v-45z" />
    <glyph glyph-name="cent" unicode="&#xa2;" horiz-adv-x="915" 
d="M813 317q0 -117 -74 -209t-186 -120v-78q0 -37 -24 -57q-25 -21 -55 -21t-54 20t-23 58v78q-115 29 -189 120t-75 209v353q0 119 76 210t188 113v84q0 37 24 57q25 20 55 21q30 0 54 -20t23 -58v-86q113 -23 187 -113t73 -208q0 -37 -23 -58q-24 -20 -55 -20t-55 20
t-23 58q0 72 -51 123t-123 51h-20q-72 0 -123 -51t-51 -123v-353q0 -73 51 -123t123 -51h20q72 -1 123 51t51 123q0 37 23 57q24 20 56 21q32 0 55 -20q22 -21 22 -58z" />
    <glyph glyph-name="sterling" unicode="&#xa3;" horiz-adv-x="1058" 
d="M1038 279q0 -139 -102 -209t-246 -70h-495q-39 0 -61 22t-21 50q0 63 69 84q147 45 148 202q0 80 -62 265h-149q-37 0 -58 23q-20 24 -20 54t20 55q20 24 58 23h90q-84 209 -84 293v29q0 137 92 232t244 95h14q123 -1 232 -83t122 -205v-9q-1 -34 -25 -56t-56 -21
q-62 0 -74 63q-12 64 -64 110t-135 46h-14q-84 0 -132 -47t-48 -125v-27q-1 -95 49 -203q6 -12 20 -47t19 -45h206q37 0 58 -22q20 -23 20 -56q0 -34 -20 -56t-58 -21h-143q57 -154 57 -264t-61 -203h268q186 0 187 123q0 37 22 57q23 20 56 20t55 -20t22 -57z" />
    <glyph glyph-name="yen" unicode="&#xa5;" horiz-adv-x="1017" 
d="M915 1358q0 -24 -8 -39l-282 -680h112q37 0 57 -23q20 -24 21 -56q0 -32 -20 -54t-58 -23h-151v-59h151q37 0 57 -24t21 -54q0 -30 -20 -54t-58 -24h-151v-202q0 -38 -24 -58t-54 -20t-54 20t-24 58v202h-137q-37 0 -57 24t-20 54t20 54t57 24h137v59h-135q-37 0 -57 24
q-20 25 -20 55t20 54t57 23h96l-282 680q-20 52 10 81q29 28 71 28t62 -50l256 -614l256 614q20 49 62 49t66 -22q23 -23 23 -47z" />
    <glyph glyph-name="brokenbar" unicode="&#xa6;" horiz-adv-x="524" 
d="M340 66q0 -38 -24 -58t-54 -20t-54 20t-24 58v444q0 37 24 57q24 21 54 21t54 -20t24 -58v-444zM340 905q0 -37 -24 -57t-54 -20t-54 20t-24 57v445q0 37 24 57t54 20t54 -20t24 -57v-445z" />
    <glyph glyph-name="section" unicode="&#xa7;" horiz-adv-x="993" 
d="M690 508q0 51 -41 86l-209 172q-57 -2 -112 -72q-33 -41 -33 -88t39 -78l213 -176q71 16 107 60t36 96zM850 508q0 -90 -56 -167t-141 -101q82 -76 121 -138t39 -151q0 -145 -98 -225q-97 -80 -231 -80t-230 74t-96 198q0 37 22 57q24 21 54 21t55 -20t25 -66
q0 -45 52 -77q50 -32 120 -32t120 38q51 38 51 119t-94 165l-325 280q-94 81 -94 191q-1 200 184 278q-70 60 -99 114t-29 160t76 194t216 87q140 1 219 -71q80 -72 80 -191q0 -37 -24 -57q-25 -20 -55 -20t-54 20t-24 63t-37 72q-38 29 -101 29q-139 0 -140 -148
q0 -81 51 -129q19 -18 82 -71l263 -213q98 -82 98 -203z" />
    <glyph glyph-name="dieresis" unicode="&#xa8;" 
d="M360 1305q0 -37 -23 -58q-25 -20 -55 -20t-54 20t-23 58v45q0 37 23 57q24 20 55 20t55 -20t22 -57v-45zM737 1305q0 -37 -23 -58q-24 -20 -55 -20t-55 20t-22 58v45q0 37 23 57q25 20 55 20t54 -20t23 -57v-45z" />
    <glyph glyph-name="copyright" unicode="&#xa9;" horiz-adv-x="1804" 
d="M1174 436v-6q-2 -2 -3 -8q-14 -94 -89 -158t-173 -63h-12q-109 0 -187 77t-77 183v409q0 109 77 184t187 74h12q100 0 174 -62t88 -159v-12q0 -31 -20 -48t-49 -18q-60 -1 -68 51t-43 82t-82 29h-12q-51 0 -87 -35t-36 -86v-409q0 -51 36 -87t87 -36h12q47 0 82 30t41 74
q8 59 70 60q28 0 50 -18t22 -48zM287 668q0 -254 180 -434t435 -181q256 1 436 181t180 435t-180 435t-436 180q-255 0 -435 -181t-180 -435zM902 1427q314 0 536 -222t223 -536q0 -315 -222 -537q-223 -222 -537 -222t-536 222t-222 536t222 537q222 222 536 222z" />
    <glyph glyph-name="ordfeminine" unicode="&#xaa;" horiz-adv-x="686" 
d="M406 1008v82q-80 -19 -120 -27q-77 -15 -77 -66q0 -84 92 -84h12q39 0 66 28t27 67zM594 854q0 -23 -15 -40t-31 -17q-72 0 -106 51q-45 -51 -129 -51h-12q-84 0 -146 55t-63 147v2q0 66 37 107t77 53q40 11 104 23t81 16q14 4 15 31v2q0 31 -26 55t-61 23h-10
q-63 0 -81 -43t-50 -43q-31 0 -49 15q-18 14 -18 34t6 33q53 121 194 120h8q83 0 143 -60t60 -140v-285q0 -23 23 -29q49 -12 49 -59z" />
    <glyph glyph-name="guillemotleft" unicode="&#xab;" horiz-adv-x="1239" 
d="M594 182q0 -34 -23 -56t-55 -22t-63 31l-324 324q-27 27 -27 73t27 74l324 324q31 31 63 31t56 -23q22 -24 22 -56t-33 -65l-285 -285l285 -284q33 -33 33 -66zM1034 185q0 -37 -22 -59t-52 -22q-31 0 -65 31l-326 324q-27 25 -27 73t27 74l326 324q35 31 65 31t52 -23
q22 -22 22 -58t-30 -63l-287 -285l287 -284q30 -27 30 -63z" />
    <glyph glyph-name="logicalnot" unicode="&#xac;" horiz-adv-x="841" 
d="M698 524q0 -37 -24 -57q-24 -21 -54 -21t-54 20t-23 58v117h-363q-37 0 -57 24q-21 25 -21 55t20 54t58 23h441q31 0 55 -24t22 -54v-195z" />
    <glyph glyph-name="registered" unicode="&#xae;" horiz-adv-x="1804" 
d="M1075 854v12q0 61 -38 93t-91 32h-143v-260h143q53 0 91 36t38 87zM1217 852q1 -80 -47 -144t-128 -100l154 -307q8 -14 8 -38t-20 -43t-58 -19t-55 41l-176 350h-92v-322q0 -33 -22 -51q-23 -18 -51 -18t-48 18t-20 51v789q0 27 22 49t45 20h219q113 0 191 -78t78 -186
v-12zM287 668q0 -254 180 -434t435 -181q256 1 436 181t180 435t-180 435t-436 180q-255 0 -435 -181t-180 -435zM902 1427q314 0 536 -222t223 -536q0 -315 -222 -537q-223 -222 -537 -222t-536 222t-222 536t222 537q222 222 536 222z" />
    <glyph glyph-name="macron" unicode="&#xaf;" 
d="M829 1303q0 -31 -20 -55t-57 -23h-562q-37 -1 -57 23t-20 55t20 55t57 22h562q37 0 57 -23t20 -54z" />
    <glyph glyph-name="degree" unicode="&#xb0;" horiz-adv-x="679" 
d="M463 1201q0 50 -36 86t-86 36t-86 -36t-36 -86t36 -86t86 -36t86 36t36 86zM578 1201q0 -97 -70 -167t-167 -70t-168 70t-71 167t71 168t168 71t167 -71t70 -168z" />
    <glyph glyph-name="plusminus" unicode="&#xb1;" horiz-adv-x="987" 
d="M799 78q-1 -34 -21 -56t-57 -22h-459q-37 0 -57 24q-21 24 -21 54t20 54t58 24h459q37 0 57 -22t21 -56zM864 641q0 -31 -20 -55t-58 -23h-215v-215q1 -37 -23 -57q-24 -21 -54 -21t-55 20q-24 20 -23 58v215h-215q-37 0 -58 24q-20 25 -20 55t20 54t58 23h215v215
q0 37 23 57q24 21 55 21q30 0 54 -20t23 -58v-215h215q38 1 58 -23t20 -55z" />
    <glyph glyph-name="twosuperior" unicode="&#xb2;" horiz-adv-x="796" 
d="M643 655q0 -31 -20 -55t-58 -22h-332q-35 0 -57 28q-42 51 -10 109l278 432q42 73 -1 108q-22 18 -50 19q-66 0 -65 -64q0 -37 -24 -57t-54 -20t-54 20t-24 57q0 90 61 154t152 63h18q96 0 158 -65q61 -66 61 -149t-44 -146l-230 -334h217q37 0 58 -23q20 -24 20 -55z
" />
    <glyph glyph-name="threesuperior" unicode="&#xb3;" horiz-adv-x="755" 
d="M446 1214q0 58 -63 60q-25 0 -44 -16t-20 -41q0 -49 -38 -70q-39 -20 -78 0t-39 70q0 100 64 155q65 55 154 55t155 -56t65 -157v-38q0 -82 -49 -146q49 -61 49 -143v-94q0 -91 -62 -153t-151 -62h-20q-90 0 -153 63q-62 63 -62 152q0 49 39 69t77 0t39 -57
q-1 -37 17 -54t43 -18h20q25 -1 41 17t16 43v73q0 58 -16 72t-70 14t-76 39t0 78t64 39t60 3q38 7 38 77v26z" />
    <glyph glyph-name="acute" unicode="&#xb4;" 
d="M640 1427q28 0 50 -24t21 -63q0 -39 -45 -60l-322 -147q-56 -25 -91 16q-22 25 -22 63t45 60l322 149q14 6 42 6z" />
    <glyph glyph-name="mu" unicode="&#xb5;" horiz-adv-x="958" 
d="M813 66q1 -35 -23 -57t-55 -21q-66 0 -78 61q-61 -61 -184 -61t-184 61v-414q0 -37 -24 -57q-25 -20 -55 -20t-54 20t-23 57v1287q0 37 24 57q25 20 55 20t54 -20t23 -57v-617q0 -68 52 -115t122 -47h18q74 -1 125 51t51 123v603q0 36 24 58q25 22 55 22t54 -22t23 -58
v-854z" />
    <glyph glyph-name="paragraph" unicode="&#xb6;" horiz-adv-x="1052" 
d="M461 795v465h-31q-96 0 -165 -68t-69 -164t70 -165q68 -69 164 -68h31zM868 -90q0 -37 -24 -57q-24 -21 -54 -21t-54 20t-23 58v1350h-97v-1350q0 -37 -24 -57q-24 -21 -54 -21t-54 20t-23 58v729h-31q-162 0 -276 114q-114 113 -113 275q0 162 114 275t275 112h361
q33 1 55 -23t22 -55v-1427z" />
    <glyph glyph-name="periodcentered" unicode="&#xb7;" horiz-adv-x="360" 
d="M258 709q0 -37 -24 -57t-54 -21q-30 0 -54 20t-24 58v45q0 37 24 57t54 20t54 -20t24 -57v-45z" />
    <glyph glyph-name="cedilla" unicode="&#xb8;" 
d="M645 -190q0 -70 -48 -118t-118 -48h-20q-55 0 -100 33q-62 48 -62 115q0 14 18 30t51 16q32 0 44 -39t49 -39h20q21 0 35 14t14 36v20q0 20 -14 34t-35 15h-8q-25 -1 -42 17t-17 41v153q0 20 17 36t42 15q25 0 41 -14t16 -37v-102q51 -16 84 -60t33 -98v-20z" />
    <glyph glyph-name="onesuperior" unicode="&#xb9;" horiz-adv-x="598" 
d="M444 655q0 -37 -24 -57t-54 -20t-54 20t-23 57v506q-27 -27 -59 -27t-54 22q-43 41 -2 97l121 144q29 31 67 31t60 -24t22 -54v-695z" />
    <glyph glyph-name="ordmasculine" unicode="&#xba;" horiz-adv-x="616" 
d="M408 1008v211q0 39 -28 65t-67 27h-10q-39 0 -67 -27t-27 -65v-211q0 -41 27 -68t67 -27h10q39 0 67 28t28 67zM524 1008q0 -88 -61 -150t-150 -61h-10q-88 0 -149 61t-62 150v211q0 86 62 147t149 61h10q87 0 149 -61t62 -147v-211z" />
    <glyph glyph-name="guillemotright" unicode="&#xbb;" horiz-adv-x="1239" 
d="M696 532q0 -47 -26 -73l-326 -324q-34 -31 -64 -31t-55 23q-20 23 -20 55t33 66l284 284l-284 285q-33 33 -33 66q1 33 23 55t52 23q30 0 64 -31l326 -324q26 -27 26 -74zM1137 532q0 -47 -27 -73l-324 -324q-32 -31 -64 -31t-54 24t-23 58q0 34 33 62l287 284l-287 285
q-33 29 -33 63t23 58q24 24 56 23q32 0 62 -31l324 -324q27 -27 27 -74z" />
    <glyph glyph-name="onequarter" unicode="&#xbc;" horiz-adv-x="1705" 
d="M444 655q0 -37 -24 -57t-54 -20t-54 20t-23 57v506q-27 -27 -59 -27t-54 22q-43 41 -2 97l121 144q29 31 67 31t60 -24t22 -54v-695zM1247 1358q0 -26 -12 -49l-770 -1282q-25 -39 -62 -39t-61 22t-25 48q0 24 15 48l770 1283q24 39 60 39t60 -23q24 -21 25 -47z
M1552 242q0 -33 -20 -56t-57 -22h-48v-98q0 -37 -21 -58q-22 -20 -52 -20t-52 20t-22 58v98h-238q-36 0 -58 26q-42 47 -9 111l254 492q23 45 63 45t64 -20t24 -42t-10 -47l-205 -407h115v49q0 37 22 57t52 20t52 -20t21 -57v-49h50q37 0 56 -24t19 -56z" />
    <glyph glyph-name="onehalf" unicode="&#xbd;" horiz-adv-x="1683" 
d="M444 655q0 -37 -24 -57t-54 -20t-54 20t-23 57v506q-27 -27 -59 -27t-54 22q-43 41 -2 97l121 144q29 31 67 31t60 -24t22 -54v-695zM1235 1358q0 -26 -12 -49l-770 -1282q-25 -39 -62 -39t-61 22t-25 48q0 24 14 48l771 1283q24 39 60 39t60 -23q24 -21 25 -47zM1530 78
q0 -30 -22 -54t-58 -24h-330q-34 0 -58 29t-24 57t15 51l276 432q21 29 21 60t-22 49t-50 18q-66 0 -66 -63q0 -37 -23 -58q-25 -20 -55 -20t-54 20t-23 58q0 92 61 154t154 63h16q96 0 156 -66t61 -150q0 -84 -41 -145l-231 -333h219q38 0 58 -24t20 -54z" />
    <glyph glyph-name="threequarters" unicode="&#xbe;" horiz-adv-x="1718" 
d="M446 1214q0 58 -63 60q-25 0 -44 -16t-20 -41q0 -49 -38 -70q-39 -20 -78 0t-39 70q0 100 64 155q65 55 154 55t155 -56t65 -157v-38q0 -82 -49 -146q49 -61 49 -143v-94q0 -91 -62 -153t-151 -62h-20q-90 0 -153 63q-62 63 -62 152q0 49 39 69t77 0t39 -57
q-1 -37 17 -54t43 -18h20q25 -1 41 17t16 43v73q0 58 -16 72t-70 14t-76 39t0 78t64 39t60 3q38 7 38 77v26zM1315 1358q0 -26 -12 -49l-771 -1282q-24 -39 -60 -39t-60 22t-25 50q0 26 12 46l770 1283q25 39 61 39t60 -23q24 -21 25 -47zM1487 322q37 0 57 -24t21 -55
q-1 -32 -21 -56t-57 -23h-49v-98q0 -38 -22 -58t-52 -20t-50 20q-22 20 -22 58v98h-239q-35 0 -58 26q-42 47 -10 111l254 492q23 45 64 45t65 -20t23 -42q0 -22 -11 -47l-202 -407h114v49q0 37 22 57t52 20t50 -20q22 -20 22 -57v-49h49z" />
    <glyph glyph-name="questiondown" unicode="&#xbf;" horiz-adv-x="817" 
d="M776 317q0 -137 -96 -233t-234 -96h-14q-137 0 -233 96t-97 233v89q0 53 32 112q32 60 64 88t70 62q39 34 55 49q44 47 46 131v145q0 37 22 58q23 20 55 20t56 -20q23 -20 22 -58v-145q0 -116 -33 -163q-33 -48 -48 -65q-15 -16 -61 -56t-66 -58t-38 -49q-19 -31 -20 -51
v-89q0 -73 51 -123t123 -51h14q72 -1 123 51t52 123v27q0 37 22 57q23 21 55 21t56 -20q23 -20 22 -58v-27zM524 1305q0 -37 -22 -58q-23 -20 -56 -20q-34 0 -56 20t-21 58v45q0 37 23 57q24 20 54 20t55 -20q24 -20 23 -57v-45z" />
    <glyph glyph-name="Agrave" unicode="&#xc0;" horiz-adv-x="1116" 
d="M762 494l-205 655l-203 -655h408zM1055 52q0 -20 -23 -42t-57 -22q-55 0 -74 55l-90 295h-506l-92 -295q-19 -55 -63 -55t-66 22t-23 42q0 19 5 36l399 1282q18 57 93 57t93 -57l400 -1282q4 -16 4 -36zM836 1619q0 -40 -23 -65q-23 -24 -44 -24t-46 8l-324 150
q-45 20 -45 59t23 63t47 25q24 0 43 -6l321 -150q48 -20 48 -60z" />
    <glyph glyph-name="Aacute" unicode="&#xc1;" horiz-adv-x="1116" 
d="M762 494l-203 655l-205 -655h408zM558 1427q77 0 93 -55l400 -1284q14 -47 -17 -78q-32 -30 -74 -22t-57 55l-92 295h-506l-90 -295q-14 -47 -57 -55t-75 22t-17 78l399 1284q16 55 93 55zM716 1837q22 1 44 -25t22 -65t-45 -59l-323 -148q-16 -8 -42 -8t-48 24t-21 64
q0 39 45 59l322 150q24 8 46 8z" />
    <glyph glyph-name="Acircumflex" unicode="&#xc2;" horiz-adv-x="1116" 
d="M762 494l-203 655l-205 -655h408zM558 1427q77 0 93 -55l400 -1284q14 -47 -17 -78q-32 -30 -74 -22t-57 55l-92 295h-506l-90 -295q-14 -47 -57 -55t-75 22t-17 78l399 1284q16 55 93 55zM850 1631q0 -33 -24 -59t-52 -26t-49 15l-166 116l-168 -116q-59 -36 -101 11
q-24 26 -24 60t35 56l176 118q41 29 80 29t80 -29l178 -118q35 -23 35 -57z" />
    <glyph glyph-name="Atilde" unicode="&#xc3;" horiz-adv-x="1116" 
d="M762 494l-205 655l-203 -655h408zM1055 52q0 -20 -23 -42t-57 -22q-55 0 -74 55l-90 295h-506l-92 -295q-19 -55 -63 -55t-66 22t-23 42q0 19 5 36l399 1282q18 57 93 57t93 -57l400 -1282q4 -16 4 -36zM852 1833q30 1 56 -25q24 -26 24 -61t-43 -74t-86 -53t-116 -14
t-161 32t-124 31q-36 0 -68 -31q-31 -30 -65 -30q-35 0 -61 28t-26 58q0 31 23 57q80 86 196 86q70 0 162 -32t127 -31t57 13q21 13 33 21t27 16t45 9z" />
    <glyph glyph-name="Adieresis" unicode="&#xc4;" horiz-adv-x="1116" 
d="M762 494l-205 655l-203 -655h408zM1055 52q0 -20 -23 -42t-57 -22q-55 0 -74 55l-90 295h-506l-92 -295q-19 -55 -63 -55t-66 22t-23 42q0 19 5 36l399 1282q18 57 93 57t93 -57l400 -1282q4 -16 4 -36zM444 1712q0 -37 -24 -57q-24 -21 -54 -21t-54 20t-23 58v45
q0 37 22 58q23 20 56 20t55 -20t22 -58v-45zM819 1712q1 -37 -23 -57q-24 -21 -55 -21t-55 20t-22 58v45q0 37 22 58q24 20 56 20t55 -20t22 -58v-45z" />
    <glyph glyph-name="Aring" unicode="&#xc5;" horiz-adv-x="1116" 
d="M762 494l-205 655l-203 -655h408zM633 1667q0 31 -23 53q-22 22 -52 23q-30 0 -52 -23q-22 -24 -23 -54q0 -30 23 -52q22 -22 52 -23q30 1 52 23t23 53zM1055 52q0 -20 -23 -42t-57 -22q-55 0 -74 55l-90 295h-506l-92 -295q-19 -55 -63 -55t-66 22t-23 42q0 19 5 36
l399 1282q18 57 93 57t93 -57l400 -1282q4 -16 4 -36zM750 1667q0 -78 -56 -134t-135 -56q-78 0 -135 56t-57 134t56 134q56 57 134 57q77 0 135 -56t58 -135z" />
    <glyph glyph-name="AE" unicode="&#xc6;" horiz-adv-x="1531" 
d="M752 530v730h-131l-246 -730h377zM1470 78q0 -34 -20 -56t-57 -22h-564q-31 0 -55 24t-22 54v297h-424l-113 -332q-20 -55 -76 -55q-33 0 -55 22t-23 41q0 20 5 37l417 1245q16 45 40 63t69 19h801q37 -1 57 -23t20 -55t-20 -55t-57 -22h-486v-455h314q37 0 57 -24
q20 -25 20 -55t-20 -54t-57 -23h-314v-493h486q37 0 57 -22t20 -56z" />
    <glyph glyph-name="Ccedilla" unicode="&#xc7;" horiz-adv-x="1030" 
d="M543 -399q-57 0 -106 37t-56 100q0 25 18 40t51 15q32 0 44 -38t49 -38h20q21 -1 35 13t14 34v21q0 21 -14 35t-35 14h-10q-23 0 -40 18t-17 42v96q-145 18 -244 129q-98 111 -98 258v663q0 162 113 275q114 113 276 112h20q147 0 256 -95t129 -238v-13q0 -35 -22 -55
t-54 -20q-61 0 -77 67q-16 84 -81 141t-151 58h-20q-96 0 -165 -68t-69 -164v-663q0 -96 69 -165t165 -69h20q86 -1 151 57t81 142q14 68 77 68q31 0 54 -20t22 -56v-15q-18 -129 -112 -220t-224 -107v-49q51 -15 84 -59t33 -99v-21q0 -68 -48 -116t-118 -47h-20z" />
    <glyph glyph-name="Egrave" unicode="&#xc8;" horiz-adv-x="1042" 
d="M981 78q0 -34 -20 -56t-58 -22h-641q-30 0 -54 24t-24 54v1259q0 31 24 55t54 23h641q37 0 58 -22q20 -23 20 -56t-20 -55t-58 -22h-563v-451h391q37 0 57 -24q20 -25 20 -55t-20 -54t-57 -23h-391v-497h563q37 0 57 -22t21 -56zM825 1620q-1 -39 -23 -65
q-22 -25 -43 -25t-46 8l-322 150q-47 20 -47 59t23 63t47 25q24 0 43 -6l323 -150q45 -20 45 -59z" />
    <glyph glyph-name="Eacute" unicode="&#xc9;" horiz-adv-x="1042" 
d="M981 78q0 -34 -20 -56t-58 -22h-641q-30 0 -54 24t-24 54v1259q0 31 24 55t54 23h641q37 0 58 -22q20 -23 20 -56t-20 -55t-58 -22h-563v-451h391q37 0 57 -24q20 -25 20 -55t-20 -54t-57 -23h-391v-497h563q37 0 57 -22t21 -56zM760 1837q22 -1 43 -25q22 -24 22 -64
t-45 -60l-323 -150q-25 -8 -47 -8t-44 24t-22 65q0 40 47 60l322 150q25 8 47 8z" />
    <glyph glyph-name="Ecircumflex" unicode="&#xca;" horiz-adv-x="1042" 
d="M981 78q0 -34 -20 -56t-58 -22h-641q-30 0 -54 24t-24 54v1259q0 31 24 55t54 23h641q37 0 58 -22q20 -23 20 -56t-20 -55t-58 -22h-563v-451h391q37 0 57 -24q20 -25 20 -55t-20 -54t-57 -23h-391v-497h563q37 0 57 -22t21 -56zM885 1631q0 -33 -25 -59q-24 -26 -52 -26
t-48 15l-168 116l-168 -116q-20 -15 -48 -15t-52 26t-25 60q0 34 35 56l176 118q41 29 80 29t82 -29l178 -118q35 -23 35 -57z" />
    <glyph glyph-name="Edieresis" unicode="&#xcb;" horiz-adv-x="1032" 
d="M981 78q0 -34 -20 -56t-58 -22h-641q-30 0 -54 24t-24 54v1259q0 31 24 55t54 23h641q37 0 58 -22q20 -23 20 -56t-20 -55t-58 -22h-563v-451h391q37 0 57 -24q20 -25 20 -55t-20 -54t-57 -23h-391v-497h563q37 0 57 -22t21 -56zM477 1712q1 -37 -23 -57q-24 -21 -55 -21
t-55 20t-22 58v45q0 37 22 58q24 20 56 20t55 -20t22 -58v-45zM852 1712q0 -37 -24 -57q-24 -21 -54 -21t-54 20t-24 58v45q0 37 23 57t55 21q32 0 56 -20q22 -20 22 -58v-45z" />
    <glyph glyph-name="Igrave" unicode="&#xcc;" horiz-adv-x="573" 
d="M346 66q0 -50 -39 -70t-78 0t-39 70v1284q0 49 39 69t78 0t39 -69v-1284zM543 1619q0 -40 -23 -65q-23 -24 -44 -24t-46 8l-324 150q-45 20 -45 59t23 63t47 25q24 0 43 -6l322 -150q47 -20 47 -60z" />
    <glyph glyph-name="Iacute" unicode="&#xcd;" horiz-adv-x="573" 
d="M377 66q0 -38 -24 -58q-25 -20 -55 -20t-54 20t-23 58v1284q0 37 24 57q25 20 55 20t54 -20t23 -57v-1284zM442 1835q26 -1 48 -25t22 -63t-47 -59l-322 -150q-25 -8 -47 -8t-44 26t-22 64q0 39 46 59l323 150q18 6 43 6z" />
    <glyph glyph-name="Icircumflex" unicode="&#xce;" horiz-adv-x="542" 
d="M346 66q0 -37 -24 -58q-25 -20 -56 -20q-32 0 -54 20t-22 58v1284q0 37 23 57t53 20t56 -20q25 -20 24 -57v-1284zM563 1631q1 -33 -23 -59t-52 -26t-50 15l-166 116l-168 -116q-59 -36 -101 11q-23 26 -23 60t34 56l176 118q41 29 80 29t82 -29l176 -118q35 -23 35 -57z
" />
    <glyph glyph-name="Idieresis" unicode="&#xcf;" horiz-adv-x="563" 
d="M358 66q0 -37 -23 -58q-25 -20 -55 -20t-54 20t-23 58v1284q0 37 23 57q24 20 55 20t55 -20t22 -57v-1284zM172 1712q0 -37 -24 -57q-24 -21 -54 -21t-54 20t-24 58v45q0 37 23 57t55 21q32 0 56 -20q23 -20 22 -58v-45zM547 1712q0 -37 -24 -57q-25 -21 -55 -21t-54 20
t-23 58v45q0 37 23 57q24 20 56 21q32 0 54 -20t23 -58v-45z" />
    <glyph glyph-name="Eth" unicode="&#xd0;" horiz-adv-x="1251" 
d="M838 389v637q0 96 -69 165t-165 69h-254v-402h191q37 0 57 -24t20 -54t-20 -54t-57 -24h-191v-546h254q96 0 165 68t69 165zM991 389q-1 -161 -113 -275t-274 -114h-332q-30 0 -54 24t-23 54v624h-58q-37 0 -57 24t-20 54t20 55q20 24 57 23h58v479q0 31 22 55
q23 24 53 23h332q162 1 276 -113t113 -274v-639z" />
    <glyph glyph-name="Ntilde" unicode="&#xd1;" horiz-adv-x="1165" 
d="M981 80q0 -47 -26 -70t-62 -22q-76 0 -107 69l-446 1010v-1001q0 -38 -24 -58t-54 -20t-54 20t-24 58v1282q0 39 27 59t65 20q76 0 105 -65l444 -1014v1002q0 37 25 57q26 20 56 20t52 -20t23 -57v-1270zM444 1837q56 0 136 -27q80 -26 112 -26t70 26q37 26 64 25
q28 1 48 -21t21 -54q0 -32 -29 -54q-45 -41 -82 -53q-37 -13 -98 -13t-135 27q-75 27 -107 27t-58 -26t-54 -26t-50 24q-24 24 -24 50t18 47q68 74 168 74z" />
    <glyph glyph-name="Ograve" unicode="&#xd2;" horiz-adv-x="1103" 
d="M795 377v661q0 96 -68 165t-164 69h-20q-96 0 -165 -68t-69 -164v-663q0 -96 69 -165t165 -69h20q96 0 164 69t68 165zM950 377q0 -162 -112 -276t-275 -113h-20q-162 0 -276 114t-113 275v663q0 162 113 275q114 113 276 112h20q162 1 275 -113t112 -274v-663zM793 1619
q0 -40 -23 -65q-23 -24 -44 -24t-46 8l-324 150q-45 20 -45 59t23 63t47 25q24 0 43 -6l324 -150q45 -20 45 -60z" />
    <glyph glyph-name="Oacute" unicode="&#xd3;" horiz-adv-x="1103" 
d="M795 377v661q0 96 -68 165t-164 69h-20q-96 0 -165 -68t-69 -164v-663q0 -96 69 -165t165 -69h20q96 0 164 69t68 165zM950 377q0 -162 -112 -276t-275 -113h-20q-162 0 -276 114t-113 275v663q0 162 113 275q114 113 276 112h20q162 1 275 -113t112 -274v-663zM722 1835
q26 -1 48 -25t23 -63q0 -39 -45 -59l-324 -150q-24 -8 -46 -8t-44 24t-23 65q0 40 45 60l322 150q18 6 44 6z" />
    <glyph glyph-name="Ocircumflex" unicode="&#xd4;" horiz-adv-x="1103" 
d="M795 377v661q0 96 -68 165t-164 69h-20q-96 0 -165 -68t-69 -164v-663q0 -96 69 -165t165 -69h20q96 0 164 69t68 165zM950 377q0 -162 -112 -276t-275 -113h-20q-162 0 -276 114t-113 275v663q0 162 113 275q114 113 276 112h20q162 1 275 -113t112 -274v-663zM844 1631
q0 -33 -24 -59t-52 -26t-49 15l-166 116l-168 -116q-59 -36 -101 11q-24 26 -24 60t35 56l174 118q43 29 82 29t80 -29l178 -118q35 -23 35 -57z" />
    <glyph glyph-name="Otilde" unicode="&#xd5;" horiz-adv-x="1103" 
d="M795 377v661q0 96 -68 165t-164 69h-20q-96 0 -165 -68t-69 -164v-663q0 -96 69 -165t165 -69h20q96 0 164 69t68 165zM950 377q0 -162 -112 -276t-275 -113h-20q-162 0 -276 114t-113 275v663q0 162 113 275q114 113 276 112h20q162 1 275 -113t112 -274v-663zM801 1835
q27 -1 48 -23t21 -52t-38 -62t-73 -45t-97 -13t-137 27t-107 27t-57 -26q-27 -26 -55 -26t-50 24t-23 50q0 26 19 47q68 74 166 74q59 0 138 -27t108 -26t48 11q19 11 29 17l21 14t39 9z" />
    <glyph glyph-name="Odieresis" unicode="&#xd6;" horiz-adv-x="1103" 
d="M795 377v661q0 96 -68 165t-164 69h-20q-96 0 -165 -68t-69 -164v-663q0 -96 69 -165t165 -69h20q96 0 164 69t68 165zM950 377q0 -162 -112 -276t-275 -113h-20q-162 0 -276 114t-113 275v663q0 162 113 275q114 113 276 112h20q162 1 275 -113t112 -274v-663zM440 1712
h2q0 -37 -24 -57q-24 -21 -54 -21t-55 20t-24 58v45q0 37 22 58q23 20 55 20t56 -20q23 -20 22 -58v-45zM819 1712q1 -37 -23 -57q-24 -21 -55 -21t-55 20t-24 58v45q0 37 22 58q24 20 56 20t56 -20t23 -58v-45z" />
    <glyph glyph-name="multiply" unicode="&#xd7;" horiz-adv-x="1257" 
d="M1135 69q0 -32 -24 -57q-23 -24 -55 -24t-55 24l-372 375l-371 -375q-24 -24 -56 -24t-56 24t-23 56q0 31 22 53l369 373l-367 370q-25 25 -24 56q-1 32 23 56t55 24t55 -25l373 -367l370 367q61 53 112 0q24 -25 24 -57t-23 -52l-379 -372l377 -371q25 -22 25 -54z" />
    <glyph glyph-name="Oslash" unicode="&#xd8;" horiz-adv-x="1173" 
d="M831 377v643l-409 -817q66 -59 156 -60h20q96 0 165 69q68 69 68 165zM578 1272q-96 0 -165 -68t-69 -164v-643l410 815q-66 59 -156 60h-20zM932 1493q40 1 64 -21t24 -48t-8 -44l-76 -149q51 -90 51 -191v-663q0 -162 -114 -276t-275 -113h-20q-127 0 -228 73l-47 -96
q-20 -43 -59 -43t-65 23q-45 40 -15 90l76 151q-51 86 -52 191v663q0 162 114 275t276 112h20q127 0 227 -73l47 96q20 43 60 43z" />
    <glyph glyph-name="Ugrave" unicode="&#xd9;" horiz-adv-x="1165" 
d="M981 377q0 -162 -113 -276t-274 -113h-21q-161 0 -275 114t-114 275v973q0 37 24 57t54 20t54 -20t24 -57v-973q0 -96 69 -165t164 -69h21q96 0 164 69t67 165v973q0 37 24 57q25 20 55 20t54 -20t23 -57v-973zM823 1619q-1 -40 -23 -65q-22 -24 -44 -24t-45 8l-324 150
q-45 20 -45 59t23 63t47 25q24 0 43 -6l321 -150q47 -20 47 -60z" />
    <glyph glyph-name="Uacute" unicode="&#xda;" horiz-adv-x="1165" 
d="M981 377q0 -162 -113 -276t-274 -113h-21q-161 0 -275 114t-114 275v973q0 37 24 57t54 20t54 -20t24 -57v-973q0 -96 69 -165t164 -69h21q96 0 164 69t67 165v973q0 37 24 57q25 20 55 20t54 -20t23 -57v-973zM754 1835q24 -1 46 -25t23 -63q0 -39 -45 -59l-321 -150
q-25 -8 -47 -8t-44 26q-24 26 -24 64q0 39 45 59l324 150q19 6 43 6z" />
    <glyph glyph-name="Ucircumflex" unicode="&#xdb;" horiz-adv-x="1165" 
d="M981 377q0 -162 -113 -276t-274 -113h-21q-161 0 -275 114t-114 275v973q0 37 24 57t54 20t54 -20t24 -57v-973q0 -96 69 -165t164 -69h21q96 0 164 69t67 165v973q0 37 24 57q25 20 55 20t54 -20t23 -57v-973zM877 1630q0 -32 -25 -58q-24 -26 -52 -26t-48 15l-166 116
l-170 -116q-58 -35 -103 11q-25 26 -25 58t36 58l176 118q43 29 82 29t80 -29l178 -118q37 -25 37 -58z" />
    <glyph glyph-name="Udieresis" unicode="&#xdc;" horiz-adv-x="1165" 
d="M981 377q0 -162 -113 -276t-274 -113h-21q-161 0 -275 114t-114 275v973q0 37 24 57t54 20t54 -20t24 -57v-973q0 -96 69 -165t164 -69h21q96 0 164 69t67 165v973q0 37 24 57q25 20 55 20t54 -20t23 -57v-973zM473 1712q1 -37 -23 -57q-24 -21 -55 -21t-55 20t-23 58v45
q0 37 23 57q24 20 56 21q32 0 55 -20t22 -58v-45zM848 1712q0 -37 -24 -57q-24 -21 -54 -21t-54 20t-24 58v45q0 37 23 57t55 21q32 0 56 -20q22 -20 22 -58v-45z" />
    <glyph glyph-name="Yacute" unicode="&#xdd;" horiz-adv-x="854" 
d="M744 1427q42 0 66 -22q24 -21 24 -45t-9 -41l-321 -772v-481q0 -38 -24 -58t-54 -20t-54 20t-24 58v481l-321 772q-18 54 11 81q28 28 70 28t62 -48l256 -616l256 616q20 47 62 47zM625 1833q27 -1 49 -25t22 -61t-39 -59l-364 -215q-18 -11 -46 -11q-29 0 -51 25t-22 61
t39 60l367 215q18 10 45 10z" />
    <glyph glyph-name="Thorn" unicode="&#xde;" horiz-adv-x="1017" 
d="M729 590v237q0 72 -51 122t-123 50h-195v-585h195q72 0 123 52t51 124zM885 590q-1 -136 -97 -234t-233 -98h-195v-192q0 -37 -23 -58q-25 -20 -55 -20t-54 20t-23 58v1284q0 37 23 57q24 20 55 20t55 -20t22 -57v-195h195q137 0 233 -95t97 -233v-237z" />
    <glyph glyph-name="germandbls" unicode="&#xdf;" horiz-adv-x="1069" 
d="M967 377q1 -152 -99 -271t-227 -118q-37 0 -59 22t-21 54q1 30 21 54t66 26t104 66t59 167v141q0 144 -91 197q-38 22 -69 22t-53 25q-22 24 -20 58q0 34 21 59q22 25 75 25t87 47q34 48 34 91v9q-1 98 -61 159t-156 62h-21q-97 0 -157 -62t-60 -159v-1096q0 -37 -24 -57
t-54 -20t-54 20t-24 57v1100q0 160 106 266t267 106h21q162 1 267 -107t105 -269v-9q0 -44 -24 -110t-76 -113q117 -100 117 -315v-127z" />
    <glyph glyph-name="agrave" unicode="&#xe0;" horiz-adv-x="972" 
d="M627 317v162q-37 -10 -118 -24q-81 -13 -125 -25t-84 -44t-42 -83v-16q0 -66 48 -105t126 -39h19q72 0 124 51t52 123zM901 68q0 -33 -20 -57q-20 -23 -43 -23q-111 2 -166 82q-94 -82 -221 -82h-19q-133 0 -231 80t-99 215v24q4 89 54 151t122 89q70 27 142 41t130 25
t68 25t9 40q0 86 -46 126t-120 40h-15q-106 0 -165 -103q-23 -41 -62 -41t-63 20t-23 46q0 26 8 43q84 190 305 190h15q137 0 229 -91t92 -224v-475q0 -59 60 -69t59 -72zM723 1212q0 -40 -23 -64t-48 -24t-42 9l-323 147q-45 20 -45 60t22 64t50 24t40 -7l322 -149
q47 -21 47 -60z" />
    <glyph glyph-name="aacute" unicode="&#xe1;" horiz-adv-x="972" 
d="M627 317v162q-37 -10 -118 -24q-81 -13 -125 -25t-84 -44t-42 -83v-16q0 -66 48 -105t126 -39h19q72 0 124 51t52 123zM901 68q0 -33 -20 -57q-20 -23 -43 -23q-111 2 -166 82q-94 -82 -221 -82h-19q-133 0 -231 80t-99 215v24q4 89 54 151t122 89q70 27 142 41t130 25
t68 25t9 40q0 86 -46 126t-120 40h-15q-106 0 -165 -103q-23 -41 -62 -41t-63 20t-23 46q0 26 8 43q84 190 305 190h15q137 0 229 -91t92 -224v-475q0 -59 60 -69t59 -72zM702 1340q0 -39 -45 -60l-323 -147q-53 -26 -90 16q-23 25 -23 63t47 60l322 149q12 6 40 6t50 -24
t22 -63z" />
    <glyph glyph-name="acircumflex" unicode="&#xe2;" horiz-adv-x="972" 
d="M627 317v162q-37 -10 -118 -24q-81 -13 -125 -25t-84 -44t-42 -83v-16q0 -66 48 -105t126 -39h19q72 0 124 51t52 123zM901 68q0 -33 -20 -57q-20 -23 -43 -23q-111 2 -166 82q-94 -82 -221 -82h-19q-133 0 -231 80t-99 215v24q4 89 54 151t122 89q70 27 142 41t130 25
t68 25t9 40q0 86 -46 126t-120 40h-15q-106 0 -165 -103q-23 -41 -62 -41t-63 20t-23 46q0 26 8 43q84 190 305 190h15q137 0 229 -91t92 -224v-475q0 -59 60 -69t59 -72zM743 1223q1 -35 -23 -61q-40 -44 -102 -9l-165 115l-168 -115q-27 -16 -53 -16q-26 -1 -49 25t-23 61
t35 57l176 119q45 29 80 29t79 -29l179 -119q34 -22 34 -57z" />
    <glyph glyph-name="atilde" unicode="&#xe3;" horiz-adv-x="972" 
d="M627 317v162q-37 -10 -118 -24q-81 -13 -125 -25t-84 -44t-42 -83v-16q0 -66 48 -105t126 -39h19q72 0 124 51t52 123zM901 68q0 -33 -20 -57q-20 -23 -43 -23q-111 2 -166 82q-94 -82 -221 -82h-19q-133 0 -231 80t-99 215v24q4 89 54 151t122 89q70 27 142 41t130 25
t68 25t9 40q0 86 -46 126t-120 40h-15q-106 0 -165 -103q-23 -41 -62 -41t-63 20t-23 46q0 26 8 43q84 190 305 190h15q137 0 229 -91t92 -224v-475q0 -59 60 -69t59 -72zM782 1352q0 -31 -26 -56q-47 -39 -84 -52q-36 -13 -98 -13q-62 -1 -136 27t-106 28t-58 -27
q-55 -55 -104 -3q-23 24 -23 53t19 47q68 72 166 71q59 -1 138 -27q80 -26 110 -26t88 39q20 12 47 12t47 -21t20 -52z" />
    <glyph glyph-name="adieresis" unicode="&#xe4;" horiz-adv-x="972" 
d="M627 317v162q-37 -10 -118 -24q-81 -13 -125 -25t-84 -44t-42 -83v-16q0 -66 48 -105t126 -39h19q72 0 124 51t52 123zM901 68q0 -33 -20 -57q-20 -23 -43 -23q-111 2 -166 82q-94 -82 -221 -82h-19q-133 0 -231 80t-99 215v24q4 89 54 151t122 89q70 27 142 41t130 25
t68 25t9 40q0 86 -46 126t-120 40h-15q-106 0 -165 -103q-23 -41 -62 -41t-63 20t-23 46q0 26 8 43q84 190 305 190h15q137 0 229 -91t92 -224v-475q0 -59 60 -69t59 -72zM342 1305q0 -37 -24 -57t-54 -21q-30 0 -54 20t-24 58v45q0 37 24 57t54 20t54 -20t24 -57v-45z
M717 1305q0 -37 -24 -57q-25 -20 -55 -21q-30 0 -54 20t-23 58v45q0 37 24 57q25 20 55 20t54 -20t23 -57v-45z" />
    <glyph glyph-name="aring" unicode="&#xe5;" horiz-adv-x="972" 
d="M627 317v162q-37 -10 -118 -24q-81 -13 -125 -25t-84 -44t-42 -83v-16q0 -66 48 -105t126 -39h19q72 0 124 51t52 123zM528 1237q0 31 -22 53t-54 23q-30 0 -53 -23q-23 -24 -23 -54t24 -52q22 -22 53 -23q31 1 53 23t22 53zM901 68q0 -33 -20 -57q-20 -23 -43 -23
q-111 2 -166 82q-94 -82 -221 -82h-19q-133 0 -231 80t-99 215v24q4 89 54 151t122 89q70 27 142 41t130 25t68 25t9 40q0 86 -46 126t-120 40h-15q-106 0 -165 -103q-23 -41 -62 -41t-63 20t-23 46q0 26 8 43q84 190 305 190h15q137 0 229 -91t92 -224v-475q0 -59 60 -69
t59 -72zM643 1237q0 -78 -56 -134t-134 -56t-135 56q-56 56 -56 134t56 134t134 56t135 -56q56 -56 56 -134z" />
    <glyph glyph-name="ae" unicode="&#xe6;" horiz-adv-x="1421" 
d="M258 303v-16q0 -66 48 -105t126 -39h19q72 0 124 51t52 123v162q-37 -10 -119 -24q-82 -13 -126 -25t-84 -44t-40 -83zM1153 567v101q0 74 -52 125t-122 51h-18q-74 0 -126 -51t-53 -123v-103h371zM627 674v4q0 86 -46 126t-120 40h-15q-106 0 -165 -103q-23 -41 -62 -41
t-63 20t-23 46q0 26 8 43q84 190 305 190h15q156 0 248 -112q100 113 247 112h21q139 0 235 -95t97 -236v-168q0 -31 -24 -55t-54 -23h-449v-105q0 -73 52 -123t124 -51h19q111 0 160 105q23 49 61 49t62 -24q41 -39 16 -91q-37 -88 -118 -141t-181 -53h-21q-156 0 -251 116
q-100 -117 -254 -116h-19q-133 0 -231 80t-99 215v24q0 89 48 151t122 89q72 27 145 41t132 25t69 25t9 36z" />
    <glyph glyph-name="ccedilla" unicode="&#xe7;" horiz-adv-x="915" 
d="M813 317q0 -123 -81 -216t-202 -109v-49q51 -15 84 -59t33 -99v-21q0 -70 -48 -118t-118 -47h-20q-55 0 -100 33q-62 48 -62 115q0 14 18 30t51 16q32 0 44 -39t49 -39h20q21 1 35 15t14 34v21q0 21 -14 35t-35 14h-8q-23 0 -41 18t-18 39v101q-119 18 -200 110t-81 215
v353q0 137 97 233t233 96h20q135 0 233 -96t97 -233q0 -37 -23 -58q-24 -20 -55 -20t-53 19t-25 57q-2 78 -51 127t-123 49h-20q-72 0 -123 -51t-51 -123v-353q0 -73 51 -123t125 -51h18q72 1 121 51t53 123q2 37 25 59q24 22 54 22t54 -22q23 -22 23 -59z" />
    <glyph glyph-name="egrave" unicode="&#xe8;" horiz-adv-x="923" 
d="M655 567v101q0 74 -51 125t-121 51h-20q-72 0 -124 -51t-52 -123v-103h368zM811 500q0 -31 -23 -55t-55 -23h-446v-105q0 -73 51 -123t123 -51h20q111 0 160 105q19 49 59 49t64 -24q40 -39 16 -91q-38 -88 -118 -141t-181 -53h-20q-137 0 -234 96q-96 96 -96 233v353
q0 137 96 233t234 96h20q137 0 233 -95t97 -236v-168zM713 1212q0 -40 -23 -64t-48 -24t-42 9l-324 147q-45 20 -45 60t23 64q22 24 50 24t40 -7l322 -149q47 -21 47 -60z" />
    <glyph glyph-name="eacute" unicode="&#xe9;" horiz-adv-x="923" 
d="M655 567v101q0 74 -51 125t-121 51h-20q-72 0 -124 -51t-52 -123v-103h368zM811 500q0 -31 -23 -55t-55 -23h-446v-105q0 -73 51 -123t123 -51h20q111 0 160 105q19 49 59 49t64 -24q40 -39 16 -91q-38 -88 -118 -141t-181 -53h-20q-137 0 -234 96q-96 96 -96 233v353
q0 137 96 233t234 96h20q137 0 233 -95t97 -236v-168zM640 1427q28 0 50 -24t23 -63q0 -39 -47 -60l-322 -147q-53 -27 -90 17q-23 26 -23 64t45 58l324 149q12 6 40 6z" />
    <glyph glyph-name="ecircumflex" unicode="&#xea;" horiz-adv-x="923" 
d="M655 567v101q0 74 -51 125t-121 51h-20q-72 0 -124 -51t-52 -123v-103h368zM811 500q0 -31 -23 -55t-55 -23h-446v-105q0 -73 51 -123t123 -51h20q111 0 160 105q19 49 59 49t64 -24q40 -39 16 -91q-38 -88 -118 -141t-181 -53h-20q-137 0 -234 96q-96 96 -96 233v353
q0 137 96 233t234 96h20q137 0 233 -95t97 -236v-168zM764 1223q0 -35 -24 -61q-41 -45 -101 -9l-166 115l-168 -115q-27 -16 -53 -16q-26 -1 -48 25q-24 26 -24 61t35 57l176 119q45 29 82 29t80 -29l176 -119q35 -22 35 -57z" />
    <glyph glyph-name="edieresis" unicode="&#xeb;" horiz-adv-x="923" 
d="M655 567v101q0 74 -51 125t-121 51h-20q-72 0 -124 -51t-52 -123v-103h368zM811 500q0 -31 -23 -55t-55 -23h-446v-105q0 -73 51 -123t123 -51h20q111 0 160 105q19 49 59 49t64 -24q40 -39 16 -91q-38 -88 -118 -141t-181 -53h-20q-137 0 -234 96q-96 96 -96 233v353
q0 137 96 233t234 96h20q137 0 233 -95t97 -236v-168zM358 1305q0 -37 -23 -58q-25 -20 -55 -20t-54 20t-23 58v45q0 37 23 57q24 20 55 20t55 -20t22 -57v-45zM735 1305q0 -37 -23 -58q-24 -20 -55 -20t-55 20t-22 58v45q0 37 23 57q25 20 55 20t54 -20t23 -57v-45z" />
    <glyph glyph-name="igrave" unicode="&#xec;" horiz-adv-x="503" 
d="M330 66q0 -38 -24 -58t-54 -20t-54 20t-24 58v856q0 37 24 57t54 20t54 -20t24 -57v-856zM494 1211q0 -39 -23 -63t-48 -24t-42 9l-324 147q-47 20 -47 60t23 64t51 24t39 -7l321 -149q50 -23 50 -61z" />
    <glyph glyph-name="iacute" unicode="&#xed;" horiz-adv-x="503" 
d="M330 66q0 -38 -24 -58t-54 -20t-54 20t-24 58v856q0 37 24 57t54 20t54 -20t24 -57v-856zM420 1427q26 0 50 -24t24 -62t-48 -61l-321 -147q-55 -24 -91 17q-24 26 -24 64t45 58l324 149q14 6 41 6z" />
    <glyph glyph-name="icircumflex" unicode="&#xee;" horiz-adv-x="503" 
d="M330 66q0 -38 -24 -58t-54 -20t-54 20t-24 58v856q0 37 24 57t54 20t54 -20t24 -57v-856zM545 1222q0 -34 -24 -60q-46 -49 -101 -9l-166 115l-168 -115q-26 -16 -52 -16q-26 -1 -50 25t-25 60q0 34 35 58l176 119q83 54 162 0l176 -119q37 -24 37 -58z" />
    <glyph glyph-name="idieresis" unicode="&#xef;" horiz-adv-x="503" 
d="M330 66q0 -38 -24 -58t-54 -20t-54 20t-24 58v856q0 37 24 57t54 20t54 -20t24 -57v-856zM141 1305h2q0 -37 -23 -58q-24 -20 -54 -20t-56 20q-25 20 -24 58v45q0 37 23 57q25 20 55 20t54 -20t23 -57v-45zM518 1305q0 -37 -23 -58q-24 -20 -55 -20q-32 0 -56 20t-24 58
v45q0 37 24 57t54 20t56 -20q25 -20 24 -57v-45z" />
    <glyph glyph-name="eth" unicode="&#xf0;" horiz-adv-x="995" 
d="M659 319v254q0 72 -51 123t-125 52h-22q-72 0 -123 -52t-51 -123v-254q0 -71 51 -123t123 -53h22q74 0 125 52t51 124zM815 1059v-740q0 -137 -97 -234t-235 -97h-22q-137 0 -234 97q-96 97 -96 234v254q0 137 96 233t234 97h22q98 0 176 -49v205q0 57 -22 84l-119 -84
q-41 -29 -79 -9t-40 57q-2 38 35 71l88 61l-155 41q-57 14 -58 72q1 32 21 54t44 22t34 -5l75 -18q104 -25 181 -70l110 78q23 16 47 17q51 0 67 -48t-32 -84l-90 -65q49 -55 49 -174z" />
    <glyph glyph-name="ntilde" unicode="&#xf1;" horiz-adv-x="966" 
d="M834 66q0 -38 -23 -58t-53 -20t-55 20q-24 20 -23 58v604q0 72 -51 123t-125 51h-19q-72 0 -124 -51t-52 -123v-604q0 -37 -23 -58q-24 -20 -55 -20t-55 20t-22 58v856q0 34 24 56t55 21q66 0 78 -61q61 61 176 61h19q139 0 233 -85t95 -244v-604zM736 1425q26 0 46 -21
t21 -53q0 -32 -38 -63t-74 -44t-97 -13q-61 -1 -136 27t-106 28t-61 -31q-55 -47 -103 1q-22 24 -22 52t18 48q68 72 166 71q59 -1 138 -27t109 -26t89 39q24 12 50 12z" />
    <glyph glyph-name="ograve" unicode="&#xf2;" 
d="M655 317v353q0 72 -51 123t-123 51h-20q-72 0 -123 -51t-51 -123v-353q0 -73 51 -123t125 -51h18q72 0 123 51t51 123zM811 317q0 -137 -96 -233t-234 -96h-20q-137 0 -234 96q-96 96 -96 233v353q0 137 96 233t234 96h20q137 0 233 -96t97 -233v-353zM727 1212
q1 -40 -21 -64t-48 -24t-44 9l-321 147q-45 20 -45 60t22 64t49 24q28 0 39 -7l324 -149q45 -21 45 -60z" />
    <glyph glyph-name="oacute" unicode="&#xf3;" 
d="M655 317v353q0 72 -51 123t-123 51h-20q-72 0 -123 -51t-51 -123v-353q0 -73 51 -123t125 -51h18q72 0 123 51t51 123zM811 317q0 -137 -96 -233t-234 -96h-20q-137 0 -234 96q-96 96 -96 233v353q0 137 96 233t234 96h20q137 0 233 -96t97 -233v-353zM640 1427
q28 0 50 -24t23 -63q0 -39 -47 -60l-322 -147q-53 -27 -90 17q-23 26 -23 64t45 58l324 149q12 6 40 6z" />
    <glyph glyph-name="ocircumflex" unicode="&#xf4;" 
d="M655 317v353q0 72 -51 123t-123 51h-20q-72 0 -123 -51t-51 -123v-353q0 -73 51 -123t125 -51h18q72 0 123 51t51 123zM811 317q0 -137 -96 -233t-234 -96h-20q-137 0 -234 96q-96 96 -96 233v353q0 137 96 233t234 96h20q137 0 233 -96t97 -233v-353zM762 1223
q0 -35 -24 -61q-41 -45 -101 -9l-166 115l-168 -115q-23 -16 -51 -16q-28 -1 -50 25q-24 26 -24 61t35 57l176 119q45 29 82 29t80 -29l176 -119q35 -22 35 -57z" />
    <glyph glyph-name="otilde" unicode="&#xf5;" 
d="M655 317v353q0 72 -51 123t-123 51h-20q-72 0 -123 -51t-51 -123v-353q0 -73 51 -123t125 -51h18q72 0 123 51t51 123zM811 317q0 -137 -96 -233t-234 -96h-20q-137 0 -234 96q-96 96 -96 233v353q0 137 96 233t234 96h20q137 0 233 -96t97 -233v-353zM784 1352
q0 -31 -26 -56q-47 -39 -83 -52q-35 -13 -97 -13q-62 -1 -137 27t-105 28t-62 -31q-56 -47 -102 1q-22 24 -22 52t18 48q68 72 166 71q59 -1 138 -27t109 -26t89 39q22 12 48 12t46 -21t20 -52z" />
    <glyph glyph-name="odieresis" unicode="&#xf6;" 
d="M655 317v353q0 72 -51 123t-123 51h-20q-72 0 -123 -51t-51 -123v-353q0 -73 51 -123t125 -51h18q72 0 123 51t51 123zM811 317q0 -137 -96 -233t-234 -96h-20q-137 0 -234 96q-96 96 -96 233v353q0 137 96 233t234 96h20q137 0 233 -96t97 -233v-353zM358 1305
q0 -37 -23 -58q-25 -20 -55 -20t-54 20t-23 58v45q0 37 23 57q24 20 55 20t55 -20t22 -57v-45zM735 1305q0 -37 -23 -58q-24 -20 -55 -20t-55 20t-22 58v45q0 37 23 57q25 20 55 20t54 -20t23 -57v-45z" />
    <glyph glyph-name="divide" unicode="&#xf7;" horiz-adv-x="901" 
d="M528 119q0 -37 -23 -58q-25 -20 -55 -20t-54 20t-23 58v45q0 37 23 57q24 21 55 21t55 -20t22 -58v-45zM809 547q-1 -33 -21 -55t-57 -23h-561q-37 0 -57 24q-21 25 -21 55t20 54t58 23h561q37 -1 57 -23t21 -55zM528 930q0 -37 -23 -58q-25 -20 -55 -20t-54 20t-23 58
v45q0 37 23 57q24 20 55 20t55 -20t22 -57v-45z" />
    <glyph glyph-name="oslash" unicode="&#xf8;" horiz-adv-x="993" 
d="M680 317v326l-289 -471q41 -29 94 -29h19q72 0 124 51t52 123zM504 844h-19q-72 0 -123 -51t-51 -123v-330l291 475q-45 29 -98 29zM776 1038q36 0 60 -22q26 -22 26 -48t-12 -48l-55 -91q41 -78 41 -159v-353q0 -137 -98 -233t-234 -96h-19q-96 0 -176 51l-33 -53
q-22 -37 -58 -37q-36 1 -62 23t-25 48q0 26 12 48l56 88q-43 70 -43 161v353q0 137 96 233t233 96h19q98 0 180 -53l33 55q23 37 59 37z" />
    <glyph glyph-name="ugrave" unicode="&#xf9;" horiz-adv-x="960" 
d="M815 66q1 -35 -23 -57t-55 -21q-66 0 -78 61q-61 -61 -176 -61h-18q-141 0 -236 85q-94 85 -94 244v605q0 37 24 57q25 20 55 20t54 -20t23 -57v-605q0 -73 51 -123t123 -51h18q74 -1 125 51t51 123v605q0 37 24 57q25 20 55 20t54 -20t23 -57v-856zM737 1213
q-1 -41 -23 -65t-48 -24t-41 9l-322 149q-47 20 -47 60t23 64t48 24t42 -9l323 -147q45 -21 45 -61z" />
    <glyph glyph-name="uacute" unicode="&#xfa;" horiz-adv-x="960" 
d="M815 66q1 -35 -23 -57t-55 -21q-66 0 -78 61q-61 -61 -176 -61h-18q-141 0 -236 85q-94 85 -94 244v605q0 37 24 57q25 20 55 20t54 -20t23 -57v-605q0 -73 51 -123t123 -51h18q74 -1 125 51t51 123v605q0 37 24 57q25 20 55 20t54 -20t23 -57v-856zM698 1340
q0 -39 -45 -60l-323 -147q-53 -26 -90 16q-23 25 -23 63t47 60l322 149q12 6 40 6t50 -24t22 -63z" />
    <glyph glyph-name="ucircumflex" unicode="&#xfb;" horiz-adv-x="960" 
d="M815 66q1 -35 -23 -57t-55 -21q-66 0 -78 61q-61 -61 -176 -61h-18q-141 0 -236 85q-94 85 -94 244v605q0 37 24 57q25 20 55 20t54 -20t23 -57v-605q0 -73 51 -123t123 -51h18q74 -1 125 51t51 123v605q0 37 24 57q25 20 55 20t54 -20t23 -57v-856zM770 1222
q0 -34 -25 -60q-43 -44 -102 -9l-166 115l-168 -115q-23 -16 -51 -16q-28 -1 -50 25q-24 26 -24 61t35 57l176 119q45 29 82 29t80 -29l176 -119q37 -24 37 -58z" />
    <glyph glyph-name="udieresis" unicode="&#xfc;" horiz-adv-x="960" 
d="M815 66q1 -35 -23 -57t-55 -21q-66 0 -78 61q-61 -61 -176 -61h-18q-141 0 -236 85q-94 85 -94 244v605q0 37 24 57q25 20 55 20t54 -20t23 -57v-605q0 -73 51 -123t123 -51h18q74 -1 125 51t51 123v605q0 37 24 57q25 20 55 20t54 -20t23 -57v-856zM362 1305
q0 -37 -23 -58q-25 -20 -55 -20t-54 20t-23 58v45q0 37 23 57q24 20 55 20t55 -20t22 -57v-45zM739 1305q0 -37 -23 -58q-24 -20 -54 -20t-55 20q-24 20 -23 58v45q0 37 22 57q24 20 54 20t55 -20t24 -57v-45z" />
    <glyph glyph-name="yacute" unicode="&#xfd;" horiz-adv-x="845" 
d="M683 999q43 0 67 -22q24 -23 24 -41t-4 -39l-338 -1055q-80 -256 -272 -282q-4 -2 -25 -2t-43 22t-20 58q0 68 67 75q47 6 82 45t64 131l71 226l-272 782q-4 8 -4 33q0 26 22 48t66 22q43 0 63 -54l203 -584l187 584q18 53 62 53zM603 1427q29 0 51 -24t22 -63t-45 -60
l-324 -147q-53 -26 -90 16q-23 25 -23 63t48 60l321 149q12 6 40 6z" />
    <glyph glyph-name="thorn" unicode="&#xfe;" horiz-adv-x="1017" 
d="M729 317v353q0 72 -51 123t-125 51h-18q-72 0 -123 -46t-52 -116v-377q0 -68 52 -115t123 -47h18q74 0 125 51t51 123zM885 317q1 -137 -97 -233t-235 -96h-18q-100 0 -175 61v-414q0 -37 -24 -57t-54 -20t-54 20t-23 57v1715q0 37 23 57q24 20 55 20t55 -20t22 -57v-412
q74 61 175 61h18q137 0 234 -96t98 -233v-353z" />
    <glyph glyph-name="ydieresis" unicode="&#xff;" horiz-adv-x="845" 
d="M683 999q43 0 67 -22q24 -23 24 -41t-4 -39l-338 -1055q-80 -256 -272 -282q-4 -2 -25 -2t-43 22t-20 58q0 68 67 75q47 6 82 45t64 131l71 226l-272 782q-4 8 -4 33q0 26 22 48t66 22q43 0 63 -54l203 -584l187 584q18 53 62 53zM311 1305q0 -37 -23 -58
q-24 -20 -55 -20t-55 20t-22 58v45q0 37 23 57q25 20 55 20t54 -20t23 -57v-45zM688 1305q0 -37 -23 -58q-24 -20 -55 -20q-30 0 -54 20t-24 58v45q0 37 24 57t54 20t55 -20q24 -20 23 -57v-45z" />
    <glyph glyph-name="dotlessi" unicode="&#x131;" horiz-adv-x="503" 
d="M330 66q0 -38 -24 -58t-54 -20t-54 20t-24 58v856q0 37 24 57t54 20t54 -20t24 -57v-856z" />
    <glyph glyph-name="Lslash" unicode="&#x141;" horiz-adv-x="1003" 
d="M909 78q0 -30 -20 -54t-58 -24h-559q-30 0 -54 24t-23 54v418l-58 -35q-23 -12 -49 -12q-26 1 -48 25t-22 60t39 60l138 82v674q0 37 23 57q24 20 54 20t55 -20q24 -20 23 -57v-582l307 184q57 30 95 -13q22 -25 22 -61t-39 -61l-385 -229v-432h481q37 0 57 -24t21 -54z
" />
    <glyph glyph-name="lslash" unicode="&#x142;" horiz-adv-x="720" 
d="M606 995q26 1 50 -25t24 -61t-39 -59l-211 -133v-651q0 -37 -23 -58q-24 -20 -55 -20q-30 0 -54 20t-24 58v555l-112 -70q-20 -14 -47 -14q-27 -1 -51 25t-23 62q0 36 37 58l196 121v547q0 37 24 57t54 20t55 -20q24 -20 23 -57v-449l129 80q20 14 47 14z" />
    <glyph glyph-name="OE" unicode="&#x152;" horiz-adv-x="1656" 
d="M797 350v709q0 88 -70 150t-164 63h-20q-96 0 -165 -68t-69 -164v-663q0 -96 69 -165t165 -69h20q92 1 163 61t71 146zM1595 78q0 -30 -20 -54t-57 -24h-644q-30 0 -54 24t-23 54q-84 -90 -234 -90h-20q-162 0 -276 114t-113 275v663q0 162 113 275q114 113 276 112h20
q139 0 234 -90q0 31 23 55q24 24 54 23h644q37 1 57 -23t20 -55t-20 -55t-57 -22h-566v-455h391q37 0 57 -24q20 -25 21 -55q0 -30 -20 -54t-58 -23h-391v-493h566q37 0 57 -24t20 -54z" />
    <glyph glyph-name="oe" unicode="&#x153;" horiz-adv-x="1447" 
d="M655 317v353q0 72 -51 123t-123 51h-20q-72 0 -123 -51t-51 -123v-353q0 -73 51 -123t125 -51h18q72 0 123 51t51 123zM1180 567v101q0 74 -52 125t-120 51h-21q-74 0 -125 -51t-51 -123v-103h369zM1335 500q1 -31 -23 -55t-55 -23h-446v-105q0 -73 50 -123t124 -51h19
q111 0 159 105q23 49 63 49t64 -23t23 -45q0 -22 -8 -47q-39 -88 -120 -141t-181 -53h-19q-156 0 -252 116q-100 -117 -252 -116h-20q-137 0 -234 96q-96 96 -96 233v353q0 137 96 233t234 96h20q152 0 252 -116q96 117 250 116h21q139 0 235 -95t96 -236v-168z" />
    <glyph glyph-name="Scaron" unicode="&#x160;" horiz-adv-x="1028" 
d="M922 369q0 -177 -104 -279t-288 -102h-18q-168 0 -287 102t-119 277q0 37 23 56t55 19t56 -20q23 -20 22 -57q0 -105 73 -163t179 -59h21q231 0 231 228q0 64 -13 90l-21 42q-8 16 -36 42q-28 27 -55 43t-42 26t-115 60t-141 74q-119 67 -167 140q-49 72 -49 204t112 234
t273 101h20q152 0 263 -94t110 -233q0 -37 -21 -57q-22 -19 -53 -19t-55 19t-26 55q-8 76 -68 125t-154 49h-18q-113 0 -169 -64t-56 -139q0 -76 46 -122l29 -29q10 -10 39 -28t38 -22q9 -6 44 -23t47 -25t123 -64q111 -57 139 -86q84 -89 97 -125q35 -90 35 -176zM742 1837
q26 1 50 -25t23 -61q0 -35 -35 -57l-176 -119q-47 -31 -82 -31t-80 31l-176 119q-35 24 -35 58t24 60t49 25q25 0 52 -16l166 -115l168 115q26 16 52 16z" />
    <glyph glyph-name="scaron" unicode="&#x161;" horiz-adv-x="911" 
d="M819 276q1 -132 -107 -210t-247 -78h-12q-102 0 -204 56q-101 56 -147 149q-10 19 -10 45t24 48t62 22t72 -45q33 -44 92 -82t115 -38h10q88 0 142 41q53 41 55 106q2 66 -54 104t-133 54q-79 16 -157 37q-78 19 -134 81t-55 162q0 100 59 164q104 110 277 107h8
q154 0 268 -88q29 -23 29 -55t-22 -56q-22 -22 -46 -22q-26 0 -40 8t-67 34q-52 26 -124 26h-8q-82 0 -129 -32t-49 -86t53 -85t133 -47t157 -40t134 -92t55 -179v-9zM676 1427q28 0 50 -25q24 -25 24 -59t-35 -57l-174 -119q-82 -55 -162 0l-178 119q-35 23 -35 57
q0 33 24 59t52 26q29 0 49 -15l166 -117l168 117q23 14 51 14z" />
    <glyph glyph-name="Ydieresis" unicode="&#x178;" horiz-adv-x="1015" 
d="M586 66q0 -38 -24 -58t-54 -20t-54 20t-24 58v481l-321 772q-16 39 7 74q24 35 70 35t66 -50l256 -614l256 614q20 49 68 49q48 1 69 -33q22 -34 6 -75l-321 -772v-481zM397 1712q1 -37 -23 -57q-24 -21 -55 -21t-55 20t-22 58v45q0 37 22 58q24 20 56 20t55 -20t22 -58
v-45zM772 1712q0 -37 -24 -57q-24 -21 -54 -21t-54 20t-24 58v45q0 37 23 57t55 21q32 0 56 -20q23 -20 22 -58v-45z" />
    <glyph glyph-name="Zcaron" unicode="&#x17d;" horiz-adv-x="978" 
d="M866 78q0 -30 -20 -54t-58 -24h-616q-57 0 -81 51t3 96l580 1113h-486q-37 0 -57 22t-20 56q0 32 20 55t57 22h586q57 0 83 -46t-3 -97l-582 -1116h516q38 0 58 -24t20 -54zM706 1835q28 -1 52 -25t24 -58t-34 -58l-177 -119q-45 -29 -83 -29t-78 29l-177 119
q-37 24 -37 58t24 58t52 25q28 0 50 -14l165 -115l168 115q23 14 51 14z" />
    <glyph glyph-name="zcaron" unicode="&#x17e;" horiz-adv-x="811" 
d="M770 78q0 -30 -20 -54t-58 -24h-522q-59 0 -81 55t15 109l455 667h-385q-37 0 -57 24q-21 25 -21 55t20 54t58 23h500q63 0 86 -53t-15 -105l-456 -673h403q38 0 58 -24t20 -54zM622 1427q28 0 52 -25t24 -58t-34 -58l-177 -119q-47 -31 -83 -31t-78 31l-176 119
q-37 25 -37 58q-1 32 23 58t52 26t50 -15l165 -117l168 117q23 14 51 14z" />
    <glyph glyph-name="florin" unicode="&#x192;" horiz-adv-x="776" 
d="M735 1350q0 -31 -20 -55t-58 -23q-121 0 -143 -129l-27 -144h82q37 0 58 -22q20 -23 20 -55t-20 -56q-20 -23 -58 -22h-108l-135 -768q-18 -106 -102 -175t-195 -69q-37 0 -59 24t-22 54t20 54q18 24 64 24t90 36t52 87l127 733h-29q-37 0 -57 24t-20 54t20 54t57 23h58
l30 172q18 111 98 184t199 72q37 0 57 -23t21 -54z" />
    <glyph glyph-name="circumflex" unicode="&#x2c6;" 
d="M764 1223q0 -35 -24 -61q-46 -49 -101 -9l-168 115l-168 -115q-23 -16 -51 -16q-28 -1 -50 25q-24 26 -24 61t35 57l176 119q45 29 82 29t80 -29l178 -119q35 -22 35 -57z" />
    <glyph glyph-name="caron" unicode="&#x2c7;" 
d="M688 1427q28 0 52 -24t24 -59t-35 -58l-176 -119q-43 -31 -80 -31t-82 31l-178 119q-35 23 -35 57q0 33 24 59t52 26t49 -15l168 -117l168 117q20 14 49 14z" />
    <glyph glyph-name="breve" unicode="&#x2d8;" 
d="M707 1350q0 -96 -67 -163t-163 -67h-12q-96 0 -163 67t-66 163q0 37 23 57q25 20 55 20t54 -20t24 -54t21 -56q22 -22 52 -21h12q31 0 53 22t21 55q0 34 23 54q24 20 55 20t55 -20t23 -57z" />
    <glyph glyph-name="dotaccent" unicode="&#x2d9;" 
d="M549 1305q0 -37 -24 -57q-25 -20 -55 -21q-30 0 -54 20t-23 58v45q0 37 24 57q25 20 55 20t54 -20t23 -57v-45z" />
    <glyph glyph-name="ring" unicode="&#x2da;" horiz-adv-x="872" 
d="M512 1249q0 31 -23 54t-53 23t-54 -24q-22 -22 -22 -53t23 -53t53 -22t54 22q22 22 22 53zM627 1249q-1 -78 -57 -134t-134 -56t-134 56t-56 134t56 134q56 57 134 57t134 -56t57 -135z" />
    <glyph glyph-name="ogonek" unicode="&#x2db;" 
d="M475 -213q14 0 36 16t28 25q23 31 55 31q32 1 52 -19q22 -20 22 -46q0 -77 -81 -128q-52 -33 -112 -33h-16q-78 1 -131 55t-54 130v20q0 92 86 150t191 75l14 3q33 0 55 -24t21 -54q0 -61 -66 -74q-37 -6 -88 -30t-57 -46l-2 -14q0 -37 47 -37z" />
    <glyph glyph-name="tilde" unicode="&#x2dc;" 
d="M846 580q0 -35 -33 -66q-55 -47 -98 -62q-43 -16 -115 -16t-160 33t-124 33t-68 -31q-31 -31 -65 -31q-35 0 -61 28t-26 60t23 56q80 84 196 84q68 0 161 -31t127 -31q41 0 83 29t77 30t59 -25t24 -60z" />
    <glyph glyph-name="hungarumlaut" unicode="&#x2dd;" 
d="M477 1350q0 -125 -49 -198t-170 -116q-10 -4 -36 -4t-48 25t-20 55q0 53 53 72q71 24 93 56t22 90t23 77q25 20 55 20t54 -20t23 -57zM788 1350q0 -125 -49 -198t-170 -116q-9 -4 -35 -4t-48 25t-21 55q0 53 53 72q72 24 94 56t21 90q0 58 23 77q24 20 55 20t54 -20
t23 -57z" />
    <glyph glyph-name="pi" unicode="&#x3c0;" horiz-adv-x="1118" 
d="M1036 922q0 -31 -20 -55t-58 -23h-157v-565q0 -115 82 -148q55 -20 55 -70q0 -31 -22 -53t-56 -20q-96 0 -155 94t-60 197v565h-174v-778q0 -37 -22 -58q-23 -20 -56 -20t-55 20t-23 58v778h-155q-37 0 -58 23q-20 24 -20 55q0 30 20 54t58 23h798q38 0 58 -23t20 -54z
" />
    <glyph glyph-name="endash" unicode="&#x2013;" horiz-adv-x="1013" 
d="M922 547q0 -31 -20 -55t-58 -23h-674q-37 0 -57 24q-21 25 -21 55t20 54t58 23h674q38 1 58 -23t20 -55z" />
    <glyph glyph-name="emdash" unicode="&#x2014;" horiz-adv-x="1196" 
d="M1155 547q0 -33 -20 -55t-58 -23h-958q-37 0 -58 24q-20 25 -20 55t20 54t58 23h958q37 -1 57 -23t21 -55z" />
    <glyph glyph-name="quoteleft" unicode="&#x2018;" horiz-adv-x="346" 
d="M285 1356q0 -26 -23 -59t-34 -75t-11 -130v-41q0 -37 -23 -58q-24 -20 -55 -20t-55 20t-23 58v41q-1 110 17 176t63 127q23 33 60 33t61 -24q24 -22 23 -48z" />
    <glyph glyph-name="quoteright" unicode="&#x2019;" horiz-adv-x="346" 
d="M285 1309q-1 -109 -19 -175t-63 -128q-25 -33 -60 -33q-35 -1 -59 23t-23 54q0 30 17 48q51 74 51 211v41q0 37 24 57q25 20 55 20t54 -20t23 -57v-41z" />
    <glyph glyph-name="quotesinglbase" unicode="&#x201a;" horiz-adv-x="509" 
d="M367 25q-1 -109 -19 -175t-63 -129q-25 -33 -60 -33t-59 24t-23 54q0 30 17 48q51 74 51 211v41q0 37 23 57q24 20 55 20t55 -20t23 -57v-41z" />
    <glyph glyph-name="quotedblleft" unicode="&#x201c;" horiz-adv-x="641" 
d="M72 1092q0 196 68 289q34 47 72 47q36 0 60 -24q24 -22 23 -48q0 -26 -16 -53q-29 -39 -40 -81t-12 -130v-41q0 -37 -23 -58q-24 -20 -54 -20t-55 20q-24 20 -23 58v41zM569 1353q1 -29 -21 -59q-44 -62 -44 -202v-41q0 -37 -24 -57t-54 -21q-30 0 -54 20t-24 58v41
q0 110 18 176t62 127q26 33 60 33t58 -24q24 -23 23 -51z" />
    <glyph glyph-name="quotedblright" unicode="&#x201d;" horiz-adv-x="641" 
d="M295 1309q-1 -109 -19 -175t-63 -128q-25 -33 -59 -33q-34 -1 -59 23q-23 24 -23 54t16 48q51 74 51 211v41q0 37 24 57q25 20 55 20t54 -20t23 -57v-41zM569 1309q0 -111 -17 -177t-63 -126q-25 -33 -59 -33q-34 -1 -58 23t-24 53t22 59q43 59 44 201v41q0 37 23 57
q24 20 56 20q33 0 55 -20t21 -57v-41z" />
    <glyph glyph-name="quotedblbase" unicode="&#x201e;" horiz-adv-x="800" 
d="M367 25q-1 -109 -19 -175t-63 -129q-25 -33 -60 -33t-59 24t-23 54q0 30 17 48q51 74 51 211v41q0 37 23 57q24 20 55 20t55 -20t23 -57v-41zM657 25q0 -111 -17 -177t-62 -127q-25 -33 -60 -33q-34 0 -58 24t-24 53t22 59q42 57 44 201v41q0 37 23 57q24 20 55 20
q30 0 54 -20t23 -57v-41z" />
    <glyph glyph-name="dagger" unicode="&#x2020;" horiz-adv-x="925" 
d="M823 942q0 -31 -18 -51t-53 -21h-217v-811q-1 -35 -21 -53t-51 -18t-51 18t-21 53v811h-217q-33 0 -52 22q-20 22 -20 50t20 50t52 22h217v342q0 33 22 52q23 19 51 19t50 -19t21 -52v-342h217q35 0 53 -20t18 -52z" />
    <glyph glyph-name="daggerdbl" unicode="&#x2021;" horiz-adv-x="944" 
d="M842 442q0 -28 -20 -50t-52 -21h-215v-314q1 -33 -21 -51t-51 -18t-51 18t-20 51v314h-238q-33 -1 -52 21q-20 22 -20 50t20 50q20 20 52 20h238v403h-238q-33 0 -52 22q-20 23 -20 51t20 48t52 21h238v301q0 33 21 51q23 18 51 18t50 -18t21 -51v-301h215q33 -1 52 -21
q20 -20 20 -49t-20 -51t-52 -21h-215v-403h215q32 0 52 -20t20 -50z" />
    <glyph glyph-name="bullet" unicode="&#x2022;" horiz-adv-x="692" 
d="M559 689q0 -89 -62 -151q-63 -62 -151 -62t-150 62q-62 64 -63 152q1 88 63 150t150 63q88 0 151 -62q62 -63 62 -152z" />
    <glyph glyph-name="ellipsis" unicode="&#x2026;" horiz-adv-x="1007" 
d="M217 66q0 -37 -23 -58q-24 -20 -55 -20t-55 20t-23 58v45q0 37 24 57q25 20 55 20t54 -20t23 -57v-45zM586 66q0 -38 -24 -58t-54 -20t-54 20t-24 58v45q0 37 24 57t54 20t54 -20t24 -57v-45zM936 66q0 -38 -24 -58t-54 -20t-54 20t-24 58v45q0 37 24 57t54 20t54 -20
t24 -57v-45z" />
    <glyph glyph-name="perthousand" unicode="&#x2030;" horiz-adv-x="2058" 
d="M432 897v291q0 36 -22 60t-54 24q-30 0 -54 -24t-23 -60v-291q-1 -37 23 -61t54 -23q30 -1 54 23q22 24 22 61zM1229 227v291q0 37 -23 61q-24 23 -54 23t-54 -24t-23 -60v-291q0 -35 24 -59q25 -24 55 -25t52 23t23 61zM1780 227v291q0 35 -24 60q-24 24 -54 24t-54 -24
t-24 -60v-291q0 -35 24 -59t54 -25q30 1 54 25t24 59zM588 897q0 -98 -68 -169t-165 -71t-165 71t-67 169v291q0 98 67 169q68 71 165 71t165 -72q68 -70 68 -168v-291zM1006 1427q44 0 66 -22q22 -21 22 -45t-7 -39l-532 -1284q-21 -49 -63 -49t-71 29t-9 79l532 1284
q18 47 62 47zM1384 227q0 -98 -68 -169q-68 -70 -164 -70q-97 0 -165 70t-67 169v291q0 98 67 169q68 71 165 71t165 -71t67 -169v-291zM1935 227q1 -98 -67 -169q-68 -70 -166 -70t-166 70t-68 169v291q0 98 68 169t166 71t166 -71t67 -169v-291z" />
    <glyph glyph-name="guilsinglleft" unicode="&#x2039;" horiz-adv-x="798" 
d="M594 182q0 -34 -23 -56t-55 -22t-63 31l-324 324q-27 27 -27 73t27 74l324 324q31 31 63 31t56 -23q22 -24 22 -56t-33 -65l-285 -285l285 -284q33 -33 33 -66z" />
    <glyph glyph-name="guilsinglright" unicode="&#x203a;" horiz-adv-x="798" 
d="M696 532q0 -47 -26 -73l-326 -324q-34 -31 -64 -31t-55 23q-20 23 -20 55t33 66l284 284l-284 285q-33 33 -33 66q1 33 23 55t52 23q30 0 64 -31l326 -324q26 -27 26 -74z" />
    <glyph glyph-name="fraction" unicode="&#x2044;" horiz-adv-x="811" 
d="M651 1427q43 0 65 -22q22 -23 23 -45q0 -22 -6 -41l-522 -1282q-21 -49 -63 -49t-64 22t-23 45q0 22 7 41l520 1282q20 49 63 49z" />
    <glyph glyph-name="Euro" unicode="&#x20ac;" horiz-adv-x="1157" 
d="M670 -12h-21q-161 0 -275 114t-114 275v92h-80q-37 0 -57 24q-21 25 -21 55t20 54t58 23h80v135h-80q-37 0 -57 24t-21 54q0 30 20 54t58 23h80v125q0 162 114 275t275 112h21q147 0 256 -95t129 -238v-13q0 -35 -23 -55t-53 -20q-61 0 -78 67q-16 84 -81 141t-150 58
h-21q-96 0 -165 -68t-68 -164v-125h389q37 1 57 -23t20 -54t-20 -55q-20 -24 -57 -23h-389v-135h389q37 0 57 -24q20 -25 20 -55t-20 -54t-57 -23h-389v-92q0 -96 68 -165t165 -69h21q86 -1 150 57t81 142q14 68 78 68q31 0 53 -20t23 -56v-15q-23 -141 -131 -236t-254 -95z
" />
    <glyph glyph-name="trademark" unicode="&#x2122;" horiz-adv-x="1263" 
d="M41 1366q0 61 59 61h340q28 0 44 -17t16 -43t-16 -44t-44 -18h-104v-471q0 -61 -60 -62q-59 0 -59 62v471h-117q-27 0 -43 18t-16 43zM1102 1427q23 0 41 -18t18 -43v-532q0 -61 -59 -62q-59 0 -60 62v380l-110 -237q-18 -41 -50 -41t-51 43l-108 233v-378q0 -61 -59 -62
q-59 0 -60 62v532q0 25 18 43t42 18h24q35 0 51 -32q100 -186 144 -275l143 277q16 31 49 30h27z" />
    <glyph glyph-name="Omega" unicode="&#x2126;" horiz-adv-x="1521" 
d="M1403 78q-1 -30 -21 -54t-57 -24h-364q-37 0 -60 24t-22 58v158q0 63 53 98q91 46 153 103t76 83q15 25 33 57q50 86 49 222q0 199 -141 340t-341 141t-341 -140t-141 -341q0 -142 49 -222q18 -32 30 -54q12 -21 38 -47q93 -91 194 -142q53 -35 53 -98v-158
q-1 -34 -23 -58t-59 -24h-364q-37 0 -58 23q-20 23 -20 55t20 56q20 22 58 22h290v69q-164 78 -264 234t-100 344q0 264 186 450q187 187 451 187t451 -186t188 -451q-1 -188 -101 -344t-264 -234v-69h291q37 0 57 -24t21 -54z" />
    <glyph glyph-name="partialdiff" unicode="&#x2202;" horiz-adv-x="995" 
d="M659 319v254q0 72 -51 123t-125 52h-22q-72 0 -123 -52t-51 -123v-254q0 -71 51 -123t123 -53h22q74 0 125 52t51 124zM815 319q0 -137 -97 -234t-235 -97h-22q-137 0 -234 97q-96 97 -96 234v254q0 137 96 233t234 97h22q98 0 176 -49v205q0 139 -163 187q-25 8 -68 18
t-61 16q-57 16 -58 72q1 32 21 54t40 22t38 -5l75 -18q332 -82 332 -346v-740z" />
    <glyph glyph-name="Delta" unicode="&#x2206;" horiz-adv-x="1370" 
d="M1155 156l-471 970l-467 -970h938zM1346 89q0 -29 -25 -59t-64 -30h-1140q-41 0 -67 30t-26 60t9 45l565 1163q26 54 90 54t88 -54l561 -1163q9 -16 9 -46z" />
    <glyph glyph-name="product" unicode="&#x220f;" horiz-adv-x="1415" 
d="M1210 -365q0 -37 -24 -57t-54 -20t-54 20t-23 57v1625h-695v-1625q0 -37 -24 -57t-54 -20t-54 20t-23 57v1702q0 31 23 55q24 24 55 23h850q31 1 55 -23t22 -55v-1702z" />
    <glyph glyph-name="summation" unicode="&#x2211;" horiz-adv-x="1087" 
d="M1067 -352q0 -33 -20 -56t-58 -22h-848q-61 0 -82 51q-20 51 11 96l477 775l-479 778q-31 47 -10 96q22 49 83 49h848q37 0 58 -22q20 -23 20 -56t-20 -55t-58 -22h-733l449 -728q12 -18 12 -39t-12 -40l-449 -727h733q37 0 57 -22t21 -56z" />
    <glyph glyph-name="minus" unicode="&#x2212;" horiz-adv-x="1245" 
d="M1112 494q0 -31 -20 -55t-58 -23l-823 -2q-37 0 -57 24t-21 54q1 30 21 54t57 23l823 2q38 0 58 -23t20 -54z" />
    <glyph glyph-name="radical" unicode="&#x221a;" horiz-adv-x="964" 
d="M844 1427q32 0 56 -21q24 -20 24 -46t-4 -37l-443 -1282q-18 -53 -71 -53h-21q-51 0 -72 47l-225 532q-6 14 -6 40q0 25 24 47t66 22q41 0 61 -49l156 -371l383 1118q18 53 72 53z" />
    <glyph glyph-name="infinity" unicode="&#x221e;" horiz-adv-x="1501" 
d="M412 610q-49 0 -81 -35t-32 -98t32 -98t81 -35q100 0 233 133q-133 133 -233 133zM1202 477q0 63 -32 98t-80 35q-100 0 -234 -133q139 -133 234 -133q48 0 80 35t32 98zM1358 477q0 -119 -73 -205t-195 -86q-162 0 -340 174q-178 -174 -338 -174q-123 0 -196 86t-73 205
t73 204t196 85q166 0 338 -172q184 172 340 172q124 0 196 -85t72 -204z" />
    <glyph glyph-name="integral" unicode="&#x222b;" horiz-adv-x="763" 
d="M631 1350q-1 -33 -21 -56q-20 -22 -62 -22t-73 -33t-31 -82v-1341q0 -113 -74 -186t-190 -72q-37 0 -57 24q-21 24 -21 54t20 54t64 24q43 0 73 32q30 33 30 82v1339q0 113 76 187t188 73q37 0 57 -22t21 -55z" />
    <glyph glyph-name="approxequal" unicode="&#x2248;" horiz-adv-x="970" 
d="M812 440q30 0 54 -26t25 -62q0 -38 -44 -74t-86 -50t-114 -15q-72 0 -160 32q-89 31 -125 31t-68 -30t-65 -31q-33 0 -59 28q-26 29 -27 61q0 32 23 54q78 84 194 84q70 0 163 -30t131 -31q38 0 102 45q26 14 56 14zM814 729q30 1 54 -25t23 -63q0 -37 -44 -73t-87 -52
t-114 -16t-159 32q-89 32 -125 31q-36 0 -66 -30q-30 -29 -65 -29t-61 26t-27 60q0 33 23 55q76 86 194 86q70 0 163 -32q93 -31 127 -31t62 17t51 31q21 13 51 13z" />
    <glyph glyph-name="notequal" unicode="&#x2260;" horiz-adv-x="1091" 
d="M948 569q0 -31 -20 -55t-58 -22h-368l-94 -148q-25 -37 -62 -37q-36 0 -60 24q-24 25 -24 51t14 46l41 64h-96q-37 0 -57 24t-20 54t20 54t57 23h197l76 117h-273q-37 0 -57 24t-21 54q1 30 21 54t57 24h373l98 151q25 37 62 37q36 0 60 -24t24 -50t-15 -47l-43 -67h90
q38 0 58 -24t20 -54t-20 -55q-20 -24 -58 -23h-192l-74 -117h266q37 0 58 -23q20 -24 20 -55z" />
    <glyph glyph-name="lessequal" unicode="&#x2264;" horiz-adv-x="901" 
d="M758 78q0 -34 -20 -56t-58 -22h-459q-37 0 -57 24t-20 54t20 54t57 24h459q38 0 58 -22t20 -56zM690 426q0 -36 -24 -60t-48 -24q-26 0 -51 12l-377 246q-37 25 -36 76q0 51 36 76l377 245q58 35 100 -11q23 -26 23 -62t-37 -58l-297 -190l297 -191q37 -24 37 -59z" />
    <glyph glyph-name="greaterequal" unicode="&#x2265;" horiz-adv-x="901" 
d="M758 78q0 -34 -20 -56t-58 -22h-459q-37 0 -57 24t-20 54t20 54t57 24h459q38 0 58 -22t20 -56zM748 676q0 -53 -35 -76l-379 -246q-24 -12 -50 -12t-48 25t-23 61q0 36 35 57l297 191l-297 190q-35 20 -35 58t23 62q24 26 50 26t48 -15l379 -245q35 -23 35 -76z" />
    <glyph glyph-name="lozenge" unicode="&#x25ca;" horiz-adv-x="1183" 
d="M928 741l-336 336l-336 -336l336 -338zM1102 740q0 -48 -21 -68l-419 -420q-20 -20 -68 -20t-70 20l-420 420q-22 22 -22 68t22 69l420 420q23 23 69 23t69 -23l419 -420q21 -21 21 -69z" />
    <glyph glyph-name="RS" unicode="&#xe000;" horiz-adv-x="1318" 
d="M1165 496q0 -37 -26 -64l-406 -420q-23 -24 -53 -24t-56 24q-24 24 -24 54q0 29 25 57l290 293h-684q-31 0 -55 24t-22 56v426q0 37 23 57q25 20 55 20t54 -20t23 -57v-351h606l-290 293q-25 25 -25 56q0 32 24 56t54 24t55 -25l406 -416q26 -26 26 -63z" />
    <glyph glyph-name="US" unicode="&#xe001;" horiz-adv-x="1318" 
d="M1165 496q0 -37 -26 -64l-406 -420q-23 -24 -55 -24t-54 24q-24 24 -24 56q0 31 25 55l290 293h-692q-33 0 -51 22t-18 56t18 56t51 21h692l-290 293q-25 25 -25 56q0 32 24 56t54 24t55 -25l406 -416q26 -26 26 -63z" />
    <glyph glyph-name="apple" unicode="&#xe002;" horiz-adv-x="983" 
d="M842 319q0 -137 -98 -234t-234 -97h-39q-137 0 -233 97t-97 234q0 37 24 57q25 20 55 21q30 0 54 -20t23 -58q0 -71 51 -123t123 -53h39q72 1 124 53t52 123v193q0 72 -41 114t-121 42h-59q-31 0 -59 26t-29 61q0 34 18 64l254 441h-323v-140q0 -37 -23 -56
q-23 -20 -55 -20t-56 20q-22 20 -22 58v217q0 31 25 54t55 22h514q37 -1 57 -25q21 -24 21 -56t-17 -58l-264 -459q281 0 281 -305v-193z" />
    <glyph glyph-name="nbspace" unicode="&#xe003;" horiz-adv-x="706" 
 />
  </font>
</defs>
</svg>
