<?xml version="1.0" encoding="UTF-8" standalone="no"?>
<svg width="141px" height="47px" viewBox="0 0 141 47" version="1.1" xmlns="http://www.w3.org/2000/svg" xmlns:xlink="http://www.w3.org/1999/xlink" xmlns:sketch="http://www.bohemiancoding.com/sketch/ns">
    <!-- Generator: Sketch 3.1.1 (8761) - http://www.bohemiancoding.com/sketch -->
    <title>logo</title>
    <desc>Created with Sketch.</desc>
    <defs></defs>
    <g id="Page-1" stroke="none" stroke-width="1" fill="none" fill-rule="evenodd" sketch:type="MSPage">
        <g id="5-Project-Template" sketch:type="MSArtboardGroup" transform="translate(-41.000000, -16.000000)" fill="#1A1918">
            <g id="Header" sketch:type="MSLayerGroup">
                <g id="logo" transform="translate(42.000000, 17.000000)" sketch:type="MSShapeGroup">
                    <g id="Group">
                        <path d="M108.332597,0.770012569 C108.238632,0.303341747 107.829698,-0.0495255515 107.345216,-0.0495255515 L84.6550085,-0.0495255515 C84.1701509,-0.0495255515 83.7615926,0.303341747 83.6668762,0.770012569 C83.6661245,0.776886607 83.6661245,5.25264932 83.6668762,5.25952335 C83.7615926,5.72581229 84.1701509,6.07906148 84.6550085,6.07906148 L91.7237812,6.07906148 C92.2789243,6.07906148 92.7318339,6.5415315 92.7318339,7.10482074 L92.7318339,29.3026179 C92.7318339,29.8655253 93.186247,30.3272315 93.7413901,30.3272315 L98.2723656,30.3272315 C98.8275087,30.3272315 99.2822976,29.8655253 99.2822976,29.3026179 L99.2822976,7.10482074 C99.2822976,6.5415315 99.7352072,6.07906148 100.290726,6.07906148 L107.345216,6.07906148 C107.829698,6.07906148 108.238632,5.72581229 108.332597,5.25952335 C108.3341,5.25264932 108.3341,0.776886607 108.332597,0.770012569" id="Fill-1"></path>
                        <path d="M-0.0394651531,0.989218012 C-0.0394651531,0.424783091 0.414572036,-0.0357774749 0.968963472,-0.0357774749 L11.8241357,-0.0357774749 C12.3785272,-0.0357774749 22.4071863,-0.334416249 22.4071863,9.18078031 C22.4071863,15.5919667 17.6386683,18.4836455 11.3531849,18.4836455 L7.55099929,18.4836455 C6.99660785,18.4836455 6.54294652,18.9445879 6.54294652,19.5078772 L6.54294652,29.2907793 C6.54294652,29.8529229 6.08890933,30.315011 5.53451789,30.315011 L0.968963472,30.315011 C0.414572036,30.315011 -0.0394651531,29.8529229 -0.0394651531,29.2907793 L-0.0394651531,0.989218012 L-0.0394651531,0.989218012 Z M6.54294652,11.8001708 C6.54294652,12.36346 6.99660785,12.8255482 7.55099929,12.8255482 L11.6087687,12.8255482 C14.0014846,12.8255482 15.571446,11.3735985 15.571446,9.51417117 C15.571446,7.01889527 14.1202559,5.85909225 11.5884724,5.85909225 L7.55099929,5.85909225 C6.99660785,5.85909225 6.54294652,6.31965282 6.54294652,6.88332396 L6.54294652,11.8001708 L6.54294652,11.8001708 Z" id="Fill-2"></path>
                        <path d="M80.2717455,29.4481184 L73.6461101,18.2690227 C73.3717333,17.6797649 73.696851,17.4070947 74.1708087,17.2638856 C77.7564997,16.1884805 79.6515788,13.0882892 79.6515788,9.18459922 C79.6515788,-0.806051654 67.9281732,-0.039214494 67.37303,-0.039214494 L57.8254698,-0.039214494 C57.2703267,-0.039214494 56.8166654,0.425546873 56.8166654,0.989599903 L56.8166654,29.3014723 C56.8166654,29.8655253 57.2703267,30.3272315 57.8254698,30.3272315 L62.3925277,30.3272315 C62.9469191,30.3272315 63.4009563,29.8655253 63.4009563,29.3014723 L63.4009563,19.2157305 C63.4009563,18.6516775 63.6625539,18.1899713 64.2176971,18.1899713 L65.8665887,18.1899713 C66.4221078,18.1899713 66.8611106,18.5997403 67.1193255,19.0988719 L72.6350504,29.4175671 C72.8921377,29.9174625 73.5570316,30.3272315 74.1117989,30.3272315 L79.7831293,30.3272315 C80.3375207,30.3272315 80.5581497,29.9308287 80.2717455,29.4481184 M64.4101367,12.8263119 C63.8549935,12.8263119 63.4009563,12.3756805 63.4009563,11.8120094 L63.4009563,6.65037044 C63.4009563,6.0863174 63.8549935,5.62499306 64.4101367,5.62499306 L67.7056649,5.62499306 C70.1126634,5.62499306 72.4215627,6.43956659 72.4215627,9.20407566 C72.4215627,13.1211318 68.2935077,12.8255482 68.2935077,12.8255482 L64.4101367,12.8263119" id="Fill-3"></path>
                        <path d="M139.467972,-0.0495255515 L133.805662,-0.0495255515 C133.320428,-0.0495255515 132.739727,0.257514825 132.419495,0.663846867 C132.373641,0.721894301 126.537308,9.60888014 126.537308,9.60888014 C126.532422,9.61651796 126.527912,9.62224632 126.523026,9.62950225 C126.464392,9.7123726 126.237749,10.0010822 125.95172,10.0201768 C125.665316,10.0010822 125.439425,9.7123726 125.380415,9.62950225 C125.375153,9.62224632 125.371019,9.61651796 125.366133,9.60888014 C125.366133,9.60888014 119.530176,0.721894301 119.483946,0.663846867 C119.163714,0.257514825 118.583388,-0.0495255515 118.097779,-0.0495255515 L112.435093,-0.0495255515 C111.949108,-0.0495255515 111.73111,0.246439986 111.888219,0.636350713 C111.910395,0.692488693 122.104432,16.512324 122.104432,16.512324 C122.105559,16.5146154 122.106687,16.5165248 122.10819,16.5180524 C122.628003,17.4040396 122.648675,18.2430541 122.65732,19.1393523 L122.65732,29.3026179 C122.65732,29.8655253 123.112485,30.3272315 123.6665,30.3272315 L128.236941,30.3272315 C128.790956,30.3272315 129.246497,29.8655253 129.246497,29.3026179 L129.246497,19.1393523 C129.25439,18.2842984 129.239356,17.4659059 129.795251,16.5180524 C129.796378,16.5165248 129.797882,16.5146154 129.799009,16.512324 C129.799009,16.512324 139.993046,0.692488693 140.015222,0.636350713 C140.171955,0.246439986 139.953957,-0.0495255515 139.467972,-0.0495255515" id="Fill-4"></path>
                        <path d="M46.629018,30.3123378 C46.0434303,30.3123378 45.3830467,29.8613245 45.161666,29.3098739 L43.271849,24.5996301 C43.0508441,24.0485613 42.3904606,23.5971662 41.804497,23.5971662 L31.4747751,23.5971662 C30.8888115,23.5971662 30.228428,24.0485613 30.0074231,24.5996301 L28.1176061,29.3098739 C27.8962253,29.8613245 27.2358418,30.3123378 26.6498782,30.3123378 L22.171523,30.3123378 C21.5855594,30.3123378 21.2938932,29.8643796 21.5235428,29.316366 L33.3176098,1.15457682 C33.5472594,0.606563214 34.2144084,0.158605052 34.800372,0.158605052 L38.6472847,0.158605052 C39.2332483,0.158605052 39.9003973,0.606563214 40.1300469,1.15457682 L51.924114,29.316366 C52.1537636,29.8643796 51.8620973,30.3123378 51.2761337,30.3123378 L46.629018,30.3123378 L46.629018,30.3123378 Z M37.0434961,9.07270515 C36.8209878,8.52201831 36.4575325,8.52201831 36.2354001,9.07270515 L33.1289288,16.7785021 C32.9064205,17.3291889 33.2041005,17.7802022 33.7900641,17.7802022 L39.4888322,17.7802022 C40.0751716,17.7802022 40.3728516,17.3291889 40.1503433,16.7785021 L37.0434961,9.07270515 L37.0434961,9.07270515 Z" id="Fill-5"></path>
                    </g>
                    <g id="Group" transform="translate(42.000000, 39.000000)">
                        <path d="M5.80755196,4.6614788 L5.82525004,4.64347537 L5.82525004,1.28448474 C5.82525004,0.549944649 5.32306683,0.442374133 5.05892289,0.442374133 L4.86512884,0.442374133 L4.86512884,0.173672887 C5.27926407,0.173672887 5.6841078,0.209229668 6.09824303,0.209229668 C6.459284,0.209229668 6.82032497,0.173672887 7.18136593,0.173672887 L7.18136593,0.442374133 L7.04951519,0.442374133 C6.67918272,0.442374133 6.26548995,0.513937782 6.26548995,1.58019114 L6.26548995,5.65571842 C6.26548995,5.96942825 6.27433899,6.28313808 6.31814176,6.56084105 L5.98364792,6.56084105 L1.44851321,1.41861032 L1.44851321,5.10931421 C1.44851321,5.88886289 1.59806205,6.15756414 2.27634122,6.15756414 L2.42589005,6.15756414 L2.42589005,6.42626538 C2.04715099,6.42626538 1.66885439,6.39025851 1.29011534,6.39025851 C0.894120649,6.39025851 0.488834464,6.42626538 0.0923973229,6.42626538 L0.0923973229,6.15756414 L0.215399025,6.15756414 C0.823328302,6.15756414 1.00827331,5.73628379 1.00827331,5.01974713 L1.00827331,1.24847787 C1.00827331,0.747082247 0.602987123,0.442374133 0.206992434,0.442374133 L0.0923973229,0.442374133 L0.0923973229,0.173672887 C0.427333613,0.173672887 0.770676494,0.209229668 1.10517033,0.209229668 C1.36931428,0.209229668 1.62460918,0.173672887 1.88919557,0.173672887 L5.80755196,4.6614788" id="Fill-6"></path>
                        <path d="M8.72862116,6.15756414 L8.85162286,6.15756414 C9.16886107,6.15756414 9.5033549,6.11300564 9.5033549,5.64716679 L9.5033549,0.953221562 C9.5033549,0.487382717 9.16886107,0.442374133 8.85162286,0.442374133 L8.72862116,0.442374133 L8.72862116,0.173672887 C9.26531564,0.173672887 10.1811916,0.209229668 10.9214141,0.209229668 C11.6607517,0.209229668 12.5766277,0.173672887 13.1752654,0.173672887 C13.1580098,0.55849628 13.1668588,1.14990907 13.1929635,1.54418427 L12.9288196,1.61574792 C12.8850168,1.03423701 12.7792707,0.567948083 11.8545457,0.567948083 L10.630723,0.567948083 L10.630723,2.91424557 L11.6784498,2.91424557 C12.2067376,2.91424557 12.3213328,2.60998754 12.3739846,2.12659535 L12.6381285,2.12659535 C12.6208729,2.47586196 12.6120238,2.82512857 12.6120238,3.17439518 C12.6120238,3.51511017 12.6208729,3.85492498 12.6381285,4.19563996 L12.3739846,4.24965026 C12.3213328,3.71179768 12.2947856,3.36253107 11.6872988,3.36253107 L10.630723,3.36253107 L10.630723,5.44957911 C10.630723,6.03244027 11.1413128,6.03244027 11.7045544,6.03244027 C12.7615727,6.03244027 13.2283597,5.96042654 13.4925036,4.93873168 L13.7389495,5.0017437 C13.6247968,5.47703434 13.5190508,5.95142482 13.4398518,6.42626538 C12.8761678,6.42626538 11.8633948,6.39025851 11.0709629,6.39025851 C10.2785311,6.39025851 9.23036192,6.42626538 8.72862116,6.42626538 L8.72862116,6.15756414" id="Fill-7"></path>
                        <path d="M19.1877479,3.75680626 L18.0254261,6.56084105 L17.7263284,6.56084105 L15.5069884,1.23992624 C15.3308924,0.818645896 15.2162973,0.442374133 14.7406612,0.442374133 L14.6088105,0.442374133 L14.6088105,0.173672887 C14.9437467,0.173672887 15.4543365,0.209229668 15.8768784,0.209229668 C16.2467684,0.209229668 16.7047064,0.173672887 16.9865484,0.173672887 L16.9865484,0.442374133 L16.906907,0.442374133 C16.7047064,0.442374133 16.528168,0.478381001 16.528168,0.648513448 C16.528168,0.765085681 16.6078093,1.03423701 16.8277081,1.57118942 L18.2718719,5.01974713 L18.9855473,3.27296398 L17.8842838,0.684520316 C17.7962359,0.478381001 17.5763371,0.442374133 17.3475894,0.442374133 L17.3475894,0.173672887 C17.7612821,0.173672887 18.1749749,0.209229668 18.5891101,0.209229668 C18.9151974,0.209229668 19.2319931,0.173672887 19.5576379,0.173672887 C19.83948,0.173672887 20.121322,0.209229668 20.403164,0.209229668 C20.667308,0.209229668 20.9314519,0.173672887 21.1955959,0.173672887 L21.1955959,0.442374133 L21.0725942,0.442374133 C20.6319118,0.442374133 20.5266082,0.612506581 20.306267,1.12335401 L19.7863857,2.35028801 L20.8699511,4.94818348 L22.2260669,1.18591594 C22.2787188,1.03423701 22.3579177,0.810094265 22.3579177,0.693522032 C22.3579177,0.495934348 22.1995198,0.442374133 21.8296298,0.442374133 L21.7238837,0.442374133 L21.7238837,0.173672887 C22.0145748,0.173672887 22.3052659,0.209229668 22.5955145,0.209229668 C22.8601009,0.209229668 23.1153958,0.173672887 23.3795397,0.173672887 L23.3795397,0.442374133 L23.2737937,0.442374133 C23.0092073,0.442374133 22.8601009,0.747082247 22.7543548,1.02478521 L20.676157,6.56084105 L20.3677679,6.56084105 L19.1877479,3.75680626 L19.1877479,3.75680626 Z M19.9098299,1.08734714 C19.9717732,0.917214695 20.024425,0.800642462 20.024425,0.711525466 C20.024425,0.487382717 19.8217819,0.442374133 19.5315333,0.442374133 C19.293494,0.442374133 19.0996999,0.487382717 19.0996999,0.666516882 C19.0996999,0.800642462 19.1700498,0.925766326 19.2403997,1.09634886 L19.575336,1.89390097 L19.5930341,1.89390097 L19.9098299,1.08734714 L19.9098299,1.08734714 Z" id="Fill-8"></path>
                        <path d="M30.402583,3.50610845 L28.6411809,1.05179036 C28.3774794,0.675518599 28.20979,0.442374133 27.7960973,0.442374133 L27.7084917,0.442374133 L27.7084917,0.173672887 C28.1836854,0.173672887 28.6150762,0.209229668 29.0907123,0.209229668 C29.5482079,0.209229668 29.9707497,0.173672887 30.3937339,0.173672887 L30.3937339,0.442374133 L30.2795813,0.442374133 C30.041542,0.442374133 29.8220857,0.505386151 29.8220857,0.648513448 C29.8220857,0.747082247 29.9273894,0.86365448 29.9804836,0.94376976 L31.3100524,2.84313201 L32.4015819,1.23992624 C32.5604222,0.979776627 32.6750173,0.828097699 32.6750173,0.657515165 C32.6750173,0.469379284 32.2953934,0.442374133 32.1723917,0.442374133 L32.0139938,0.442374133 L32.0139938,0.173672887 C32.3489301,0.173672887 32.6834239,0.209229668 33.0179177,0.209229668 C33.3002022,0.209229668 33.5816018,0.173672887 33.8545948,0.173672887 L33.8545948,0.442374133 C33.5550547,0.442374133 33.3086088,0.657515165 33.167909,0.854652763 L31.5295087,3.21040205 L31.5295087,5.35146039 C31.5295087,6.11300564 31.7945375,6.15756414 32.2608821,6.15756414 L32.4276866,6.15756414 L32.4276866,6.42626538 C31.9086902,6.42626538 31.3799598,6.39025851 30.9928142,6.39025851 C30.5525743,6.39025851 30.0238439,6.42626538 29.5048475,6.42626538 L29.5048475,6.15756414 L29.671652,6.15756414 C30.1910909,6.15756414 30.402583,6.01443684 30.402583,5.42257396 L30.402583,3.50610845" id="Fill-9"></path>
                        <path d="M38.0609875,0.0395473062 C39.9374272,0.0395473062 41.4342429,1.22192281 41.4342429,3.12983669 C41.4342429,5.19032966 39.9812299,6.56084105 38.1056752,6.56084105 C36.2385271,6.56084105 34.8120613,5.27089503 34.8120613,3.34497772 C34.8120613,1.48162234 36.229678,0.0395473062 38.0609875,0.0395473062 L38.0609875,0.0395473062 Z M38.1932807,6.16656585 C39.902031,6.16656585 40.2011287,4.63447365 40.2011287,3.32697428 C40.2011287,2.01902483 39.5055939,0.433372417 38.0432894,0.433372417 C36.5031135,0.433372417 36.044733,1.83088895 36.044733,3.03126789 C36.044733,4.63447365 36.7672574,6.16656585 38.1932807,6.16656585 L38.1932807,6.16656585 Z" id="Fill-10"></path>
                        <path d="M43.518635,1.12335401 C43.518635,0.469379284 43.1668855,0.442374133 42.8934501,0.442374133 L42.7350522,0.442374133 L42.7350522,0.173672887 C43.0173367,0.173672887 43.5628802,0.209229668 44.1004596,0.209229668 C44.628305,0.209229668 45.0508469,0.173672887 45.5176339,0.173672887 C46.6273039,0.173672887 47.6135298,0.478381001 47.6135298,1.75032359 C47.6135298,2.55642733 47.0852419,3.04927132 46.3901496,3.32697428 L47.8953718,5.62016164 C48.1422601,5.9964334 48.3179137,6.10355383 48.749747,6.15756414 L48.749747,6.42626538 C48.4586134,6.42626538 48.1772139,6.39025851 47.8869652,6.39025851 C47.6135298,6.39025851 47.3316878,6.42626538 47.0591372,6.42626538 C46.3808581,5.52159284 45.7994759,4.55435837 45.2273853,3.52411188 L44.6460031,3.52411188 L44.6460031,5.44102748 C44.6460031,6.13100907 44.9632413,6.15756414 45.3680851,6.15756414 L45.5269254,6.15756414 L45.5269254,6.42626538 C45.0247422,6.42626538 44.5137099,6.39025851 44.0119692,6.39025851 C43.5898698,6.39025851 43.1757346,6.42626538 42.7350522,6.42626538 L42.7350522,6.15756414 L42.8934501,6.15756414 C43.2195373,6.15756414 43.518635,6.00498504 43.518635,5.67372186 L43.518635,1.12335401 L43.518635,1.12335401 Z M44.6460031,3.20140034 L45.077394,3.20140034 C45.9578738,3.20140034 46.4335099,2.86113544 46.4335099,1.8038838 C46.4335099,1.00678178 45.9322116,0.495934348 45.1481863,0.495934348 C44.8835999,0.495934348 44.7694473,0.523389585 44.6460031,0.531941216 L44.6460031,3.20140034 L44.6460031,3.20140034 Z" id="Fill-11"></path>
                        <path d="M49.7687143,6.15756414 L49.8921585,6.15756414 C50.2093967,6.15756414 50.5438905,6.11300564 50.5438905,5.64716679 L50.5438905,0.953221562 C50.5438905,0.487382717 50.2093967,0.442374133 49.8921585,0.442374133 L49.7687143,0.442374133 L49.7687143,0.173672887 C50.1213487,0.173672887 50.6496366,0.209229668 51.0982831,0.209229668 C51.5739192,0.209229668 52.1380457,0.173672887 52.4986442,0.173672887 L52.4986442,0.442374133 L52.3933406,0.442374133 C52.1291966,0.442374133 51.6712586,0.45137585 51.6712586,0.953221562 L51.6712586,5.64716679 C51.6712586,6.14856242 52.1291966,6.15756414 52.3933406,6.15756414 L52.4986442,6.15756414 L52.4986442,6.42626538 C52.1380457,6.42626538 51.5739192,6.39025851 51.0982831,6.39025851 C50.6496366,6.39025851 50.1213487,6.42626538 49.7687143,6.42626538 L49.7687143,6.15756414 L49.7687143,6.15756414 Z M53.3446127,0.173672887 C53.7229093,0.173672887 54.0927993,0.209229668 54.4715384,0.209229668 C54.8679755,0.209229668 55.2551212,0.173672887 55.6515583,0.173672887 L55.6515583,0.442374133 L55.5374057,0.442374133 C54.9555811,0.442374133 54.479945,0.845651046 54.118904,1.23992624 L52.7278344,2.77156836 L54.9909772,5.66517023 C55.1759222,5.93342139 55.4577643,6.15756414 55.7927006,6.15756414 L55.7927006,6.42626538 C55.501567,6.42626538 55.1936203,6.40826195 54.8940802,6.40826195 C54.6126806,6.40826195 54.3392452,6.42626538 54.0574032,6.42626538 C53.9782042,6.25613293 53.7229093,5.89741452 53.5999076,5.75428722 L51.6978058,3.335976 L53.5468134,1.23992624 C53.6614085,1.12335401 53.933959,0.818645896 53.933959,0.630510015 C53.933959,0.45137585 53.55522,0.442374133 53.4410673,0.442374133 L53.3446127,0.442374133 L53.3446127,0.173672887 L53.3446127,0.173672887 Z" id="Fill-12"></path>
                    </g>
                </g>
            </g>
        </g>
    </g>
</svg>