<?xml version="1.0" encoding="UTF-8" standalone="no"?>
<svg width="23px" height="20px" viewBox="0 0 23 20" version="1.1" xmlns="http://www.w3.org/2000/svg" xmlns:xlink="http://www.w3.org/1999/xlink" xmlns:sketch="http://www.bohemiancoding.com/sketch/ns">
    <!-- Generator: Sketch 3.1.1 (8761) - http://www.bohemiancoding.com/sketch -->
    <title>twitter</title>
    <desc>Created with Sketch.</desc>
    <defs></defs>
    <g id="Page-1" stroke="none" stroke-width="1" fill="none" fill-rule="evenodd" sketch:type="MSPage">
        <g id="5-Project-Template" sketch:type="MSArtboardGroup" transform="translate(-204.000000, -2844.000000)" fill-opacity="0.4" fill="#000000">
            <g id="Footer" sketch:type="MSLayerGroup" transform="translate(0.000000, 2646.000000)">
                <g id="twitter" transform="translate(204.000000, 198.000000)" sketch:type="MSShapeGroup">
                    <path d="M14.4084723,0.23590002 C12.3311262,1.03033957 11.0182435,3.07822819 11.1678124,5.32031315 L11.2176687,6.18536955 L10.3867303,6.07944428 C7.36211444,5.6733974 4.71973025,4.29636884 2.4761965,1.98366703 L1.37935778,0.836143237 L1.09683872,1.68354543 C0.498563054,3.57254614 0.88079473,5.56747212 2.12720237,6.90919226 C2.7919531,7.65066917 2.64238419,7.75659445 1.49568916,7.31523914 C1.09683872,7.17400544 0.747844582,7.06808017 0.714607045,7.1210428 C0.598275665,7.24462229 0.997126109,8.85115561 1.31288271,9.48670725 C1.74497069,10.3694179 2.62576542,11.2344743 3.58965399,11.7464464 L4.40397365,12.1524933 L3.44008508,12.1701475 C2.50943404,12.1701475 2.4761965,12.1878017 2.57590911,12.5585402 C2.90828448,13.706064 4.22116719,14.9242046 5.68361882,15.453831 L6.71398247,15.8245695 L5.81656897,16.3895042 C4.48706749,17.201598 2.92490325,17.6606075 1.36273902,17.695916 C0.614894434,17.7135702 1.50499801e-15,17.784187 1.51148406e-15,17.8371496 C1.53310424e-15,18.0136918 2.02748975,19.0023277 3.20742232,19.3907203 C6.74722,20.5382441 10.9517684,20.0439262 14.1093344,18.0843086 C16.3528682,16.6896259 18.5964019,13.9179145 19.6433843,11.2344743 C20.2084225,9.80448307 20.7734606,7.19165965 20.7734606,5.93821058 C20.7734606,5.12611682 20.8233169,5.02019154 21.7539679,4.04920987 C22.3023873,3.48427508 22.8175691,2.86637765 22.9172817,2.68983552 C23.0834694,2.35440549 23.0668507,2.35440549 22.2192935,2.6545271 C20.8066981,3.18415347 20.6072729,3.11353662 21.3052612,2.31909707 C21.820443,1.75416227 22.4353375,0.730217963 22.4353375,0.430096355 C22.4353375,0.377133718 22.1860559,0.465404779 21.9035369,0.62429269 C21.604399,0.800834812 20.9396483,1.065648 20.4410852,1.22453591 L19.5436717,1.52465752 L18.7293521,0.94206851 C18.2806453,0.62429269 17.6491321,0.271208444 17.3167568,0.165283171 C16.4691996,-0.081875801 15.1729356,-0.0465673765 14.4084723,0.23590002 L14.4084723,0.23590002 Z" id="Twitter"></path>
                </g>
            </g>
        </g>
    </g>
</svg>